<?xml version="1.0" encoding="UTF-8"?>
<svg version="1.1" xmlns="http://www.w3.org/2000/svg" width="1131" height="962">
<path d="M0 0 C45.70281502 41.07712836 61.95900987 109.6776167 81.59350586 165.59765625 C88.2112743 184.44524284 94.86849224 203.2786239 101.53827667 222.10784912 C107.75573431 239.66018585 113.95499139 257.21859399 120.12036133 274.78930664 C132.8729913 311.12981316 145.67835771 347.26770687 161.93115234 382.22851562 C162.23719391 382.88883789 162.54323547 383.54916016 162.85855103 384.22949219 C163.72345851 386.08995289 164.59523923 387.94699083 165.47021484 389.80273438 C165.9698877 390.86451904 166.46956055 391.92630371 166.984375 393.02026367 C168.1896303 395.62306958 168.1896303 395.62306958 170.30615234 397.54101562 C170.96615234 395.23101563 171.62615234 392.92101562 172.30615234 390.54101562 C172.96615234 390.54101562 173.62615234 390.54101562 174.30615234 390.54101562 C174.45052734 389.36539062 174.59490234 388.18976563 174.74365234 386.97851562 C175.22025411 383.15889291 175.75068779 379.34991543 176.30615234 375.54101562 C176.96615234 375.54101562 177.62615234 375.54101562 178.30615234 375.54101562 C178.45052734 374.34476563 178.59490234 373.14851563 178.74365234 371.91601562 C179.17654577 368.44049982 179.7023149 364.99151528 180.30615234 361.54101562 C186.21909876 361.22354199 191.09519267 362.35694626 196.74365234 364.04101562 C197.98405273 364.39873047 197.98405273 364.39873047 199.24951172 364.76367188 C201.27079786 365.34785862 203.28882839 365.94329001 205.30615234 366.54101562 C203.17286001 376.05041026 200.82233551 385.47666611 198.22021484 394.86914062 C197.95271423 395.84113403 197.68521362 396.81312744 197.40960693 397.8145752 C196.30254659 401.83606045 195.19451376 405.85703746 194.0625 409.87158203 C193.22581497 412.84619879 192.40888399 415.82565877 191.59521484 418.80664062 C191.33495514 419.71182434 191.07469543 420.61700806 190.80654907 421.54962158 C189.44830737 426.48569526 189.44830737 426.48569526 190.0612793 431.48120117 C195.56151318 440.58209807 201.81627937 449.12481994 208.30615234 457.54101562 C208.95326172 458.3840625 209.60037109 459.22710938 210.26708984 460.09570312 C220.90758303 473.68947605 232.75800223 486.33465969 247.05615234 496.10351562 C247.65782227 496.52133301 248.25949219 496.93915039 248.87939453 497.36962891 C253.23492544 500.23561111 257.19820942 501.50030038 262.30615234 502.54101562 C262.30615234 503.20101562 262.30615234 503.86101563 262.30615234 504.54101562 C264.61615234 504.87101563 266.92615234 505.20101562 269.30615234 505.54101562 C269.30615234 506.20101562 269.30615234 506.86101563 269.30615234 507.54101562 C270.6551097 508.05490414 272.01071717 508.55134284 273.36865234 509.04101562 C274.12275391 509.31945312 274.87685547 509.59789062 275.65380859 509.88476562 C278.39300787 510.67517879 278.39300787 510.67517879 281.65771484 510.54101562 C285.54170465 510.54101562 288.83372292 511.19205949 292.61865234 512.04101562 C306.05180431 514.79539748 319.73327081 513.76301139 333.30615234 512.54101562 C333.63615234 515.51101563 333.96615234 518.48101563 334.30615234 521.54101562 C296.94720899 533.10994178 260.92950783 534.90192011 225.30615234 516.54101562 C210.10010783 508.28094206 196.74317596 497.49126728 184.30615234 485.54101562 C183.79665039 485.05342773 183.28714844 484.56583984 182.76220703 484.06347656 C177.42672991 478.92870705 172.31671451 473.71243525 167.61865234 467.97851562 C166.88775391 467.08648438 166.15685547 466.19445312 165.40380859 465.27539062 C163.30615234 462.54101562 163.30615234 462.54101562 161.48974609 459.61914062 C155.22177393 450.24883881 147.60823738 448.86856231 137.21142578 446.47363281 C132.31408724 445.32581401 127.45709298 444.02465307 122.59521484 442.73632812 C121.64764816 442.48542419 120.70008148 442.23452026 119.72380066 441.97601318 C117.78702151 441.46311398 115.85026935 440.95011288 113.9135437 440.43701172 C109.1972185 439.19166802 104.47649396 437.96333719 99.75537109 436.73632812 C98.90323029 436.51478058 98.05108948 436.29323303 97.17312622 436.06497192 C95.2175395 435.55671231 93.26185771 435.04881852 91.30615234 434.54101562 C90.37895987 431.22999755 90.37804206 429.33029176 91.30224609 425.99414062 C91.64545898 424.72763672 91.64545898 424.72763672 91.99560547 423.43554688 C92.24246094 422.56285156 92.48931641 421.69015625 92.74365234 420.79101562 C92.98664063 419.90285156 93.22962891 419.0146875 93.47998047 418.09960938 C94.0801155 415.9108816 94.6890858 413.72501876 95.30615234 411.54101562 C105.79882419 413.3540876 105.79882419 413.3540876 110.49365234 414.66601562 C113.47815227 415.35098282 115.41424415 415.62025263 118.36865234 415.54101562 C122.55732652 415.54101562 125.37581454 416.23090302 129.30615234 417.54101562 C129.30615234 418.20101563 129.30615234 418.86101562 129.30615234 419.54101562 C131.28615234 419.87101562 133.26615234 420.20101563 135.30615234 420.54101562 C132.6758632 417.12250123 132.6758632 417.12250123 129.61865234 414.10351562 C128.30615234 412.54101562 128.30615234 412.54101562 128.02099609 410.06054688 C127.02446909 405.15414891 124.80068728 401.11591183 122.55615234 396.66601562 C109.56248255 370.08970963 99.80868317 342.28894184 90.26220703 314.33557129 C88.90013771 310.35423154 87.52933396 306.37591254 86.15921021 302.39733887 C84.41229502 297.32168005 82.67160662 292.24389268 80.93115234 287.16601562 C80.59601624 286.19015503 80.26088013 285.21429443 79.91558838 284.2088623 C78.97219283 281.45870543 78.03302378 278.70714427 77.09521484 275.95507812 C76.81158081 275.12998749 76.52794678 274.30489685 76.23571777 273.45480347 C74.30615234 267.77045937 74.30615234 267.77045937 74.30615234 265.54101562 C23.15615234 265.54101562 -27.99384766 265.54101562 -80.69384766 265.54101562 C-81.35384766 268.84101563 -82.01384766 272.14101563 -82.69384766 275.54101562 C-83.02384766 277.19101562 -83.35384766 278.84101562 -83.69384766 280.54101562 C-84.35384766 280.54101562 -85.01384766 280.54101562 -85.69384766 280.54101562 C-88.13061039 286.04548859 -89.99968901 290.42418854 -89.69384766 296.54101562 C-90.35384766 297.20101563 -91.01384766 297.86101562 -91.69384766 298.54101562 C-93.25678645 300.88542381 -94.26672311 302.71562161 -95.29785156 305.2746582 C-95.59801178 306.01585403 -95.898172 306.75704987 -96.20742798 307.52070618 C-96.5252121 308.31760361 -96.84299622 309.11450104 -97.17041016 309.93554688 C-97.50052094 310.7605217 -97.83063171 311.58549652 -98.17074585 312.43547058 C-98.86695025 314.18055686 -99.561125 315.92645404 -100.25341797 317.6730957 C-101.31224658 320.33690855 -102.38562005 322.99455855 -103.45947266 325.65234375 C-104.13486095 327.35055017 -104.80936916 329.04910693 -105.48291016 330.74804688 C-105.80474274 331.53887161 -106.12657532 332.32969635 -106.4581604 333.14448547 C-108.17007923 337.51756714 -108.83355215 340.78700677 -108.69384766 345.54101562 C-109.35384766 346.20101563 -110.01384766 346.86101562 -110.69384766 347.54101562 C-114.25074584 352.8763629 -115.84255914 357.14642166 -115.69384766 363.54101562 C-116.35384766 364.20101563 -117.01384766 364.86101562 -117.69384766 365.54101562 C-121.39830575 371.09770276 -121.32771873 377.01214359 -120.69384766 383.54101562 C-119.17038272 388.90985289 -116.02891948 393.03700246 -111.68212891 396.49023438 C-108.70959599 398.06118006 -106.20951143 397.92482079 -102.91259766 397.69335938 C-99.67509932 397.47106636 -96.86759508 397.87981825 -93.69384766 398.54101562 C-92.69384766 400.54101562 -92.69384766 400.54101562 -92.69384766 407.54101562 C-130.97384766 407.54101562 -169.25384766 407.54101562 -208.69384766 407.54101562 C-208.69384766 400.54101562 -208.69384766 400.54101562 -207.69384766 398.54101562 C-205.17400561 398.08204439 -202.73515583 397.74399995 -200.19384766 397.47851562 C-199.46206299 397.39110107 -198.73027832 397.30368652 -197.97631836 397.21362305 C-194.98476446 396.86212459 -192.02904385 396.5537384 -189.01806641 396.43945312 C-179.57412408 396.05962363 -171.72895784 389.39707535 -165.51416016 382.71679688 C-159.4650968 375.48647866 -155.75238173 367.66347042 -152.06103516 359.06054688 C-151.62456665 358.04961975 -151.18809814 357.03869263 -150.73840332 355.99713135 C-146.55637807 346.2816898 -142.47449636 336.52503712 -138.42285156 326.75463867 C-136.25655131 321.5308169 -134.08395201 316.30961309 -131.91259766 311.08789062 C-131.47286621 310.02989258 -131.03313477 308.97189453 -130.58007812 307.88183594 C-126.30315568 297.59380422 -122.00048779 287.31663404 -117.69384766 277.04101562 C-111.34212189 261.88198551 -105.01193094 246.71409677 -98.69384766 231.54101562 C-92.4680863 216.59102245 -86.23609883 201.64366806 -79.98535156 186.70410156 C-79.22147393 184.87834128 -78.45779447 183.05249807 -77.69433594 181.2265625 C-76.63492586 178.69308744 -75.57463675 176.1599819 -74.51416016 173.62695312 C-74.18603333 172.84181335 -73.85790649 172.05667358 -73.51983643 171.2477417 C-71.99126908 167.59844536 -70.44648185 163.95815501 -68.85693359 160.33496094 C-68.57357147 159.68645172 -68.29020935 159.0379425 -67.9982605 158.36978149 C-67.24389051 156.64951181 -66.48258226 154.93228924 -65.72070312 153.21533203 C-64.51462085 150.55168878 -64.51462085 150.55168878 -64.69384766 147.54101562 C-73.57227751 149.97404688 -82.10789991 153.24938057 -90.69384766 156.54101562 C-90.69384766 157.20101562 -90.69384766 157.86101562 -90.69384766 158.54101562 C-92.01384766 158.87101563 -93.33384766 159.20101562 -94.69384766 159.54101562 C-95.72829014 156.96240537 -96.7465705 154.37926927 -97.75634766 151.79101562 C-98.05089844 151.06140625 -98.34544922 150.33179688 -98.64892578 149.58007812 C-98.92285156 148.87109375 -99.19677734 148.16210938 -99.47900391 147.43164062 C-99.73560791 146.78227539 -99.99221191 146.13291016 -100.2565918 145.46386719 C-100.80296272 143.0611774 -100.58956238 141.83440367 -99.69384766 139.54101562 C-97.94114685 138.45257568 -97.94114685 138.45257568 -95.63305664 137.61816406 C-94.77223984 137.29813416 -93.91142303 136.97810425 -93.02452087 136.64837646 C-91.62140404 136.15437347 -91.62140404 136.15437347 -90.18994141 135.65039062 C-89.23692642 135.3009137 -88.28391144 134.95143677 -87.30201721 134.59136963 C-84.25035729 133.47621118 -81.19120278 132.38346135 -78.13134766 131.29101562 C-76.06375947 130.53987117 -73.99669443 129.78728507 -71.93017578 129.03320312 C-66.85735638 127.18568921 -61.77820458 125.35651993 -56.69384766 123.54101562 C-56.69384766 122.88101563 -56.69384766 122.22101563 -56.69384766 121.54101562 C-55.95231445 121.392854 -55.21078125 121.24469238 -54.44677734 121.09204102 C-50.21065321 118.70537051 -49.35676452 115.13183589 -47.64697266 110.72460938 C-47.27780731 109.81666626 -46.90864197 108.90872314 -46.52828979 107.9732666 C-45.31624133 104.98163948 -44.12967293 101.98062332 -42.94384766 98.97851562 C-41.69061539 95.85376722 -40.43244331 92.73103511 -39.17422485 89.60829163 C-38.31239529 87.46738943 -37.45286306 85.32556109 -36.59555054 83.18284607 C-33.68439573 75.92383289 -30.66057089 68.72139872 -27.56103516 61.54101562 C-26.75431037 59.65780891 -25.94798646 57.77443041 -25.14208984 55.89086914 C-23.98855501 53.19485953 -22.82930864 50.50229671 -21.64855957 47.81808472 C-20.56332948 45.3469062 -19.50493203 42.86579069 -18.45166016 40.38085938 C-18.12463104 39.655802 -17.79760193 38.93074463 -17.46066284 38.18371582 C-16.46564153 35.92734349 -16.46564153 35.92734349 -15.69384766 32.54101562 C-16.75373825 29.67797329 -16.75373825 29.67797329 -18.69384766 27.54101562 C-19.69158203 26.23003906 -19.69158203 26.23003906 -20.70947266 24.89257812 C-31.26176569 11.28242522 -31.26176569 11.28242522 -45.69384766 2.66601562 C-46.35384766 2.62476563 -47.01384766 2.58351562 -47.69384766 2.54101562 C-47.69384766 1.88101563 -47.69384766 1.22101563 -47.69384766 0.54101562 C-52.7510432 -2.28313253 -56.87195461 -3.78722749 -62.69384766 -4.45898438 C-64.88134766 -5.39648438 -64.88134766 -5.39648438 -66.69384766 -6.45898438 C-69.69595694 -8.18548831 -71.84252147 -8.71476997 -75.29931641 -8.72460938 C-76.19158936 -8.72887939 -77.0838623 -8.73314941 -78.00317383 -8.73754883 C-78.95297119 -8.72812256 -79.90276855 -8.71869629 -80.88134766 -8.70898438 C-82.35921753 -8.69774536 -82.35921753 -8.69774536 -83.86694336 -8.6862793 C-98.84829739 -8.46908788 -112.37636621 -6.05336962 -126.77392578 -1.97802734 C-129.06189347 -1.3594847 -131.36076154 -0.8742737 -133.69384766 -0.45898438 C-135.01011457 -4.0787184 -135.69384766 -6.55465568 -135.69384766 -10.45898438 C-89.38442944 -27.07215552 -40.30195525 -34.7138202 0 0 Z M-92.69384766 -11.45898438 C-92.69384766 -11.12898437 -92.69384766 -10.79898438 -92.69384766 -10.45898438 C-91.04384766 -10.45898438 -89.39384766 -10.45898438 -87.69384766 -10.45898438 C-87.69384766 -10.78898438 -87.69384766 -11.11898437 -87.69384766 -11.45898438 C-89.34384766 -11.45898438 -90.99384766 -11.45898438 -92.69384766 -11.45898438 Z M-103.69384766 -10.45898438 C-103.69384766 -10.12898437 -103.69384766 -9.79898438 -103.69384766 -9.45898438 C-100.39384766 -9.45898438 -97.09384766 -9.45898438 -93.69384766 -9.45898438 C-93.69384766 -9.78898438 -93.69384766 -10.11898437 -93.69384766 -10.45898438 C-96.99384766 -10.45898438 -100.29384766 -10.45898438 -103.69384766 -10.45898438 Z M-86.69384766 -10.45898438 C-86.69384766 -10.12898437 -86.69384766 -9.79898438 -86.69384766 -9.45898438 C-83.39384766 -9.45898438 -80.09384766 -9.45898438 -76.69384766 -9.45898438 C-76.69384766 -9.78898438 -76.69384766 -10.11898437 -76.69384766 -10.45898438 C-79.99384766 -10.45898438 -83.29384766 -10.45898438 -86.69384766 -10.45898438 Z M-109.69384766 -9.45898438 C-109.69384766 -9.12898438 -109.69384766 -8.79898438 -109.69384766 -8.45898438 C-108.04384766 -8.45898438 -106.39384766 -8.45898438 -104.69384766 -8.45898438 C-104.69384766 -8.78898437 -104.69384766 -9.11898437 -104.69384766 -9.45898438 C-106.34384766 -9.45898438 -107.99384766 -9.45898438 -109.69384766 -9.45898438 Z M-114.69384766 -8.45898438 C-110.69384766 -7.45898438 -110.69384766 -7.45898438 -110.69384766 -7.45898438 Z M-118.69384766 -7.45898438 C-114.69384766 -6.45898438 -114.69384766 -6.45898438 -114.69384766 -6.45898438 Z M-0.69384766 59.54101562 C-0.36384766 60.20101562 -0.03384766 60.86101562 0.30615234 61.54101562 C0.63615234 60.88101563 0.96615234 60.22101563 1.30615234 59.54101562 C0.64615234 59.54101562 -0.01384766 59.54101562 -0.69384766 59.54101562 Z M-1.69384766 61.54101562 C-1.91633682 62.11492035 -2.13882599 62.68882507 -2.36805725 63.28012085 C-4.72092597 69.34922588 -7.07392821 75.41827914 -9.42700195 81.48730469 C-10.3007329 83.74087261 -11.17443177 85.99445297 -12.0480957 88.24804688 C-12.89679243 90.43722672 -13.74577965 92.62629396 -14.59506226 94.81524658 C-15.43309908 96.9781385 -16.26906394 99.14183438 -17.10293579 101.30633545 C-18.99002041 106.19710282 -20.89912127 111.07262291 -22.91210938 115.91308594 C-23.24641464 116.72967682 -23.58071991 117.5462677 -23.92515564 118.38760376 C-24.53596686 119.87406864 -25.15938877 121.35544998 -25.79859924 122.82992554 C-29.24079624 131.27976111 -25.94595947 138.1753211 -22.91259766 146.21679688 C-22.53905151 147.22316696 -22.16550537 148.22953705 -21.78063965 149.2664032 C-20.59157945 152.46458707 -19.39272346 155.65900012 -18.19384766 158.85351562 C-17.38724081 161.02060368 -16.58124459 163.18791913 -15.77587891 165.35546875 C-14.30482752 169.30577945 -12.83300088 173.25578093 -11.35205078 177.20239258 C-10.90690125 178.38983818 -10.90690125 178.38983818 -10.45275879 179.60127258 C-9.71331404 181.57757338 -9.71331404 181.57757338 -8.69384766 183.54101562 C-10.21449559 183.99996369 -11.73537713 184.45813776 -13.25634766 184.91601562 C-14.10326172 185.17125 -14.95017578 185.42648437 -15.82275391 185.68945312 C-19.10627788 186.66334187 -22.40071742 187.60012127 -25.69384766 188.54101562 C-28.99384766 179.30101562 -32.29384766 170.06101562 -35.69384766 160.54101562 C-36.68384766 161.03601563 -36.68384766 161.03601563 -37.69384766 161.54101562 C-38.68384766 160.55101562 -38.68384766 160.55101562 -39.69384766 159.54101562 C-40.95045494 162.71285226 -42.20692324 165.88474393 -43.46337891 169.05664062 C-43.85588837 170.04739594 -44.24839783 171.03815125 -44.65280151 172.05892944 C-46.81237524 177.51089054 -48.97015955 182.96355024 -51.12475586 188.41748047 C-58.56133241 207.23777365 -58.56133241 207.23777365 -61.56532288 214.67382812 C-62.3678855 216.66060645 -63.1666651 218.64885876 -63.96411133 220.63769531 C-64.88308114 222.9255423 -65.80986142 225.21027353 -66.74584961 227.49121094 C-67.14505615 228.48991211 -67.5442627 229.48861328 -67.95556641 230.51757812 C-68.46543091 231.77175537 -68.46543091 231.77175537 -68.9855957 233.05126953 C-69.81446136 235.96501375 -69.81577226 238.52660109 -69.69384766 241.54101562 C-70.35384766 241.54101562 -71.01384766 241.54101562 -71.69384766 241.54101562 C-72.35384766 243.19101562 -73.01384766 244.84101563 -73.69384766 246.54101562 C-27.16384766 246.54101562 19.36615234 246.54101562 67.30615234 246.54101562 C66.64444466 243.23247721 65.99763773 240.36630251 64.94604492 237.21777344 C64.67041214 236.38784378 64.39477936 235.55791412 64.11079407 234.70283508 C63.66028938 233.36203133 63.66028938 233.36203133 63.20068359 231.99414062 C62.72751961 230.5747242 62.72751961 230.5747242 62.24479675 229.12663269 C61.20593596 226.01368497 60.16246942 222.90230463 59.11865234 219.79101562 C58.38874139 217.60883653 57.65892482 215.42662585 56.92919922 213.24438477 C51.59694972 197.31598718 46.19950697 181.41029332 40.74879456 165.52207947 C40.46350388 164.69043777 40.1782132 163.85879608 39.88427734 163.00195312 C39.59806015 162.16769302 39.31184296 161.33343292 39.01695251 160.47389221 C36.73308812 153.80795527 34.47781306 147.1325832 32.22802734 140.45507812 C23.21335202 113.72426677 14.16334827 87.17640569 2.30615234 61.54101562 C1.64615234 62.20101562 0.98615234 62.86101562 0.30615234 63.54101562 C-0.68384766 62.55101562 -0.68384766 62.55101562 -1.69384766 61.54101562 Z M-63.69384766 145.54101562 C-62.69384766 147.54101562 -62.69384766 147.54101562 -62.69384766 147.54101562 Z M-38.69384766 156.54101562 C-37.69384766 158.54101562 -37.69384766 158.54101562 -37.69384766 158.54101562 Z M-37.69384766 158.54101562 C-36.69384766 160.54101562 -36.69384766 160.54101562 -36.69384766 160.54101562 Z M-70.69384766 238.54101562 C-69.69384766 240.54101562 -69.69384766 240.54101562 -69.69384766 240.54101562 Z M-84.69384766 275.54101562 C-83.69384766 277.54101562 -83.69384766 277.54101562 -83.69384766 277.54101562 Z M-91.69384766 293.54101562 C-90.69384766 295.54101562 -90.69384766 295.54101562 -90.69384766 295.54101562 Z M-110.69384766 342.54101562 C-109.69384766 344.54101562 -109.69384766 344.54101562 -109.69384766 344.54101562 Z M-117.69384766 360.54101562 C-116.69384766 362.54101562 -116.69384766 362.54101562 -116.69384766 362.54101562 Z M180.30615234 364.54101562 C181.30615234 367.54101562 181.30615234 367.54101562 181.30615234 367.54101562 Z M176.30615234 379.54101562 C177.30615234 382.54101562 177.30615234 382.54101562 177.30615234 382.54101562 Z M172.30615234 394.54101562 C173.30615234 397.54101562 173.30615234 397.54101562 173.30615234 397.54101562 Z M171.30615234 397.54101562 C170.97615234 398.53101563 170.64615234 399.52101563 170.30615234 400.54101562 C171.29615234 401.03601563 171.29615234 401.03601563 172.30615234 401.54101562 C171.97615234 400.22101563 171.64615234 398.90101563 171.30615234 397.54101562 Z M-197.69384766 398.54101562 C-197.69384766 398.87101562 -197.69384766 399.20101563 -197.69384766 399.54101562 C-195.71384766 399.54101562 -193.73384766 399.54101562 -191.69384766 399.54101562 C-191.69384766 399.21101563 -191.69384766 398.88101562 -191.69384766 398.54101562 C-193.67384766 398.54101562 -195.65384766 398.54101562 -197.69384766 398.54101562 Z M-106.69384766 398.54101562 C-102.69384766 399.54101562 -102.69384766 399.54101562 -102.69384766 399.54101562 Z M289.30615234 513.54101562 C289.30615234 513.87101563 289.30615234 514.20101562 289.30615234 514.54101562 C290.95615234 514.54101562 292.60615234 514.54101562 294.30615234 514.54101562 C294.30615234 514.21101562 294.30615234 513.88101563 294.30615234 513.54101562 C292.65615234 513.54101562 291.00615234 513.54101562 289.30615234 513.54101562 Z M294.30615234 514.54101562 C294.30615234 514.87101563 294.30615234 515.20101562 294.30615234 515.54101562 C296.28615234 515.54101562 298.26615234 515.54101562 300.30615234 515.54101562 C300.30615234 515.21101562 300.30615234 514.88101563 300.30615234 514.54101562 C298.32615234 514.54101562 296.34615234 514.54101562 294.30615234 514.54101562 Z M319.30615234 514.54101562 C319.30615234 514.87101563 319.30615234 515.20101562 319.30615234 515.54101562 C321.94615234 515.54101562 324.58615234 515.54101562 327.30615234 515.54101562 C327.30615234 515.21101562 327.30615234 514.88101563 327.30615234 514.54101562 C324.66615234 514.54101562 322.02615234 514.54101562 319.30615234 514.54101562 Z M301.30615234 515.54101562 C301.30615234 515.87101563 301.30615234 516.20101562 301.30615234 516.54101562 C306.91615234 516.54101562 312.52615234 516.54101562 318.30615234 516.54101562 C318.30615234 516.21101562 318.30615234 515.88101563 318.30615234 515.54101562 C312.69615234 515.54101562 307.08615234 515.54101562 301.30615234 515.54101562 Z " fill="#444310" transform="translate(565.69384765625,241.458984375)"/>
<path d="M0 0 C0.99 0 1.98 0 3 0 C4.6791189 2.2186192 6.15778329 4.39661162 7.625 6.75 C8.51809277 8.1358845 9.41397035 9.51997802 10.3125 10.90234375 C10.76238281 11.59569824 11.21226562 12.28905273 11.67578125 13.00341797 C14.88363759 17.84004207 18.44587747 22.41466308 22 27 C22.64453125 27.83917969 23.2890625 28.67835938 23.953125 29.54296875 C34.59097291 43.14298163 46.44941764 55.79198229 60.75 65.5625 C61.65250488 66.18922607 61.65250488 66.18922607 62.57324219 66.82861328 C66.9287731 69.69459548 70.89205707 70.95928476 76 72 C76 72.66 76 73.32 76 74 C78.31 74.33 80.62 74.66 83 75 C83 75.66 83 76.32 83 77 C84.34895736 77.51388852 85.70456483 78.01032722 87.0625 78.5 C87.81660156 78.7784375 88.57070313 79.056875 89.34765625 79.34375 C92.08685553 80.13416316 92.08685553 80.13416316 95.3515625 80 C99.2355523 80 102.52757057 80.65104387 106.3125 81.5 C119.74565197 84.25438186 133.42711846 83.22199577 147 82 C147.33 84.97 147.66 87.94 148 91 C110.64105665 102.56892616 74.62335548 104.36090448 39 86 C23.79395548 77.73992644 10.43702362 66.95025166 -2 55 C-2.76425293 54.26861816 -2.76425293 54.26861816 -3.54394531 53.52246094 C-10.58598069 46.74532972 -16.922814 39.66727409 -23 32 C-25.44546404 29.06843455 -27.89336159 26.13902046 -30.34765625 23.21484375 C-32 21 -32 21 -32 19 C-23.23339098 20.60159203 -14.62927587 22.79450269 -6 25 C-5.73445312 23.865625 -5.46890625 22.73125 -5.1953125 21.5625 C-4.83857214 20.04165952 -4.48179958 18.52082659 -4.125 17 C-3.86396484 15.88431641 -3.86396484 15.88431641 -3.59765625 14.74609375 C-2.44097218 9.81947641 -1.23786742 4.90686184 0 0 Z M103 83 C103 83.33 103 83.66 103 84 C104.65 84 106.3 84 108 84 C108 83.67 108 83.34 108 83 C106.35 83 104.7 83 103 83 Z M108 84 C108 84.33 108 84.66 108 85 C109.98 85 111.96 85 114 85 C114 84.67 114 84.34 114 84 C112.02 84 110.04 84 108 84 Z M133 84 C133 84.33 133 84.66 133 85 C135.64 85 138.28 85 141 85 C141 84.67 141 84.34 141 84 C138.36 84 135.72 84 133 84 Z M115 85 C115 85.33 115 85.66 115 86 C120.61 86 126.22 86 132 86 C132 85.67 132 85.34 132 85 C126.39 85 120.78 85 115 85 Z " fill="#444310" transform="translate(752,672)"/>
<path d="M0 0 C5.91294642 -0.31747363 10.78904033 0.81593064 16.4375 2.5 C17.67790039 2.85771484 17.67790039 2.85771484 18.94335938 3.22265625 C20.96464552 3.806843 22.98267605 4.40227439 25 5 C22.15148212 17.54172911 18.95453738 29.97626176 15.6262207 42.39868164 C14.79998192 45.48424845 13.97887341 48.57115111 13.15820312 51.65820312 C12.63311193 53.62507996 12.10773248 55.59187987 11.58203125 57.55859375 C11.3372554 58.47926132 11.09247955 59.39992889 10.84028625 60.34849548 C10.61302353 61.1944075 10.3857608 62.04031952 10.15161133 62.91186523 C9.95271805 63.6555687 9.75382477 64.39927216 9.54890442 65.16551208 C9 67 9 67 8 69 C7.34 69 6.68 69 6 69 C5.88785156 70.134375 5.77570313 71.26875 5.66015625 72.4375 C5.07422566 77.12494474 3.83062151 81.49674447 2.4375 86 C2.20353516 86.77472656 1.96957031 87.54945313 1.72851562 88.34765625 C1.15809962 90.2335214 0.57987197 92.1170209 0 94 C-6.81342353 93.53010872 -12.86322756 91.98750243 -19.375 89.9375 C-23.00898186 88.89240419 -23.00898186 88.89240419 -26.89233398 88.65258789 C-33.20674683 87.98380326 -39.22924276 86.26720295 -45.34765625 84.62109375 C-47.2263163 84.12380516 -47.2263163 84.12380516 -49.14292908 83.61647034 C-52.443824 82.74263357 -55.74262075 81.86112475 -59.04101562 80.97790527 C-62.41866959 80.07495394 -65.79828522 79.17940747 -69.17773438 78.28320312 C-75.78707532 76.5293056 -82.39422542 74.76728083 -89 73 C-89.92719247 69.68898193 -89.92811028 67.78927614 -89.00390625 64.453125 C-88.66069336 63.18662109 -88.66069336 63.18662109 -88.31054688 61.89453125 C-88.06369141 61.02183594 -87.81683594 60.14914062 -87.5625 59.25 C-87.31951172 58.36183594 -87.07652344 57.47367188 -86.82617188 56.55859375 C-86.22603684 54.36986597 -85.61706655 52.18400314 -85 50 C-74.50732815 51.81307197 -74.50732815 51.81307197 -69.8125 53.125 C-66.82800008 53.8099672 -64.89190819 54.079237 -61.9375 54 C-57.74882583 54 -54.93033781 54.6898874 -51 56 C-51 56.66 -51 57.32 -51 58 C-39.14427291 61.86847141 -27.07670685 64.91078984 -15 68 C-14.83177734 66.329375 -14.83177734 66.329375 -14.66015625 64.625 C-13.92699333 58.74935222 -12.2955934 53.12033963 -10.72851562 47.421875 C-9.66561323 43.38098659 -8.8662975 39.75552603 -8.97265625 35.5625 C-9.00312819 31.5924412 -7.99575796 30.49363695 -5.875 27.3125 C-4.96582516 24.90968079 -4.9349768 23.47340489 -5 20.9375 C-5 16.6868727 -4.12833558 15.69250337 -1.875 12.3125 C-0.56824008 8.8589202 -0.94056079 5.68523077 -1 2 C-0.67 1.34 -0.34 0.68 0 0 Z M0 3 C1 6 1 6 1 6 Z M-4 18 C-3 21 -3 21 -3 21 Z M-8 33 C-7 36 -7 36 -7 36 Z " fill="#000000" transform="translate(746,603)"/>
<path d="M0 0 C0.80859375 2.00390625 0.80859375 2.00390625 1.4375 4.5625 C2.25308704 7.85049557 3.24357647 10.47444776 4.80200195 13.51000977 C7.30417195 18.45502464 9.20475574 23.57475647 11.109375 28.7734375 C11.66688446 30.28087021 11.66688446 30.28087021 12.23565674 31.8187561 C13.01429807 33.9273457 13.79069295 36.03676609 14.56494141 38.14697266 C15.75476506 41.38797974 16.95303155 44.62577494 18.15234375 47.86328125 C18.90935382 49.91648252 19.66588159 51.96986168 20.421875 54.0234375 C20.78118103 54.99421234 21.14048706 55.96498718 21.51068115 56.96517944 C21.83812317 57.86016144 22.16556519 58.75514343 22.50292969 59.67724609 C22.79286804 60.46586029 23.0828064 61.25447449 23.38153076 62.06698608 C24 64 24 64 24 66 C21.37831689 67.03016022 18.75326119 68.04938394 16.125 69.0625 C15.37863281 69.35705078 14.63226562 69.65160156 13.86328125 69.95507812 C11.93024437 70.69520486 9.96634968 71.35355735 8 72 C4.85877944 70.42938972 4.64376741 67.82675319 3.46875 64.5859375 C3.23216675 63.93807281 2.9955835 63.29020813 2.75183105 62.62271118 C2.25094564 61.24692855 1.75352397 59.86988075 1.25927734 58.49169922 C0.50963958 56.40187303 -0.25000301 54.31591893 -1.01171875 52.23046875 C-3.20159637 46.19765027 -5.28517089 40.18876527 -7 34 C-7.51693697 32.24884509 -8.0373383 30.49870597 -8.5625 28.75 C-8.81128906 27.91984375 -9.06007813 27.0896875 -9.31640625 26.234375 C-9.8526139 24.481742 -10.4204104 22.7387688 -11 21 C-12.78857422 21.63228516 -12.78857422 21.63228516 -14.61328125 22.27734375 C-16.1796826 22.83074303 -17.74608912 23.38412768 -19.3125 23.9375 C-20.49102539 24.35418945 -20.49102539 24.35418945 -21.69335938 24.77929688 C-22.45068359 25.04677734 -23.20800781 25.31425781 -23.98828125 25.58984375 C-24.68477783 25.83597412 -25.38127441 26.08210449 -26.09887695 26.33569336 C-27.72763566 26.90482813 -29.36320668 27.45440223 -31 28 C-31.33 28.66 -31.66 29.32 -32 30 C-33.72265625 30.640625 -33.72265625 30.640625 -36.0625 31.25 C-41.02437137 32.6439464 -45.81018608 34.36132016 -50.625 36.1875 C-51.34824463 36.46174805 -52.07148926 36.73599609 -52.81665039 37.01855469 C-54.54541611 37.67646049 -56.27285327 38.33785566 -58 39 C-58 39.66 -58 40.32 -58 41 C-59.98 41.495 -59.98 41.495 -62 42 C-63.03444249 39.42138975 -64.05272284 36.83825365 -65.0625 34.25 C-65.35705078 33.52039063 -65.65160156 32.79078125 -65.95507812 32.0390625 C-66.22900391 31.33007812 -66.50292969 30.62109375 -66.78515625 29.890625 C-67.17006226 28.91657715 -67.17006226 28.91657715 -67.56274414 27.92285156 C-68.10911507 25.52016178 -67.89571473 24.29338805 -67 22 C-65.24729919 20.91156006 -65.24729919 20.91156006 -62.93920898 20.07714844 C-62.07839218 19.75711853 -61.21757538 19.43708862 -60.33067322 19.10736084 C-59.39526199 18.77802551 -58.45985077 18.44869019 -57.49609375 18.109375 C-56.54307877 17.75989807 -55.59006378 17.41042114 -54.60816956 17.050354 C-51.55650964 15.93519556 -48.49735512 14.84244573 -45.4375 13.75 C-43.36991182 12.99885555 -41.30284677 12.24626944 -39.23632812 11.4921875 C-34.16350872 9.64467359 -29.08435693 7.8155043 -24 6 C-24 5.34 -24 4.68 -24 4 C-22.68 3.34 -21.36 2.68 -20 2 C-20 2.66 -20 3.32 -20 4 C-14.54352635 3.52552403 -10.22641107 1.99015405 -5.234375 -0.2578125 C-3 -1 -3 -1 0 0 Z " fill="#000000" transform="translate(533,359)"/>
<path d="M0 0 C50.49 0 100.98 0 153 0 C153 0.33 153 0.66 153 1 C102.51 1 52.02 1 0 1 C0 0.67 0 0.34 0 0 Z " fill="#43430F" transform="translate(486,508)"/>
<path d="M0 0 C0.99 1.98 0.99 1.98 2 4 C-43.54 4 -89.08 4 -136 4 C-135.67 3.34 -135.34 2.68 -135 2 C-90.45 2.33 -45.9 2.66 0 3 C0 2.01 0 1.02 0 0 Z " fill="#444410" transform="translate(630,483)"/>
<path d="M0 0 C37.62 0 75.24 0 114 0 C114 0.33 114 0.66 114 1 C76.38 1 38.76 1 0 1 C0 0.67 0 0.34 0 0 Z " fill="#44430F" transform="translate(358,650)"/>
<path d="M0 0 C0.33 0 0.66 0 1 0 C1 3.63 1 7.26 1 11 C0.67 11 0.34 11 0 11 C0 7.37 0 3.74 0 0 Z " fill="#444310" transform="translate(445,614)"/>
<path d="M0 0 C2.5654594 2.5654594 2.54046087 4.47686668 3 8 C0.4345406 5.4345406 0.45953913 3.52313332 0 0 Z " fill="#454312" transform="translate(649,539)"/>
<path d="M0 0 C2.64 0.33 5.28 0.66 8 1 C5.39417629 1.93065133 4.35801776 2.14917407 1.75 1.0625 C1.1725 0.711875 0.595 0.36125 0 0 Z " fill="#000000" transform="translate(761,604)"/>
<path d="M0 0 C2.64 0 5.28 0 8 0 C8 0.33 8 0.66 8 1 C5.36 1 2.72 1 0 1 C0 0.67 0 0.34 0 0 Z " fill="#43430F" transform="translate(842,773)"/>
<path d="M0 0 C0.625 1.8125 0.625 1.8125 1 4 C0.34 4.99 -0.32 5.98 -1 7 C-0.67 4.69 -0.34 2.38 0 0 Z " fill="#000000" transform="translate(656,665)"/>
<path d="M0 0 C2.97 0.495 2.97 0.495 6 1 C4.125 1.625 4.125 1.625 2 2 C1.34 1.34 0.68 0.68 0 0 Z " fill="#000000" transform="translate(662,651)"/>
<path d="M0 0 C2.31 0 4.62 0 7 0 C7 0.33 7 0.66 7 1 C4.69 1 2.38 1 0 1 C0 0.67 0 0.34 0 0 Z " fill="#444310" transform="translate(484,215)"/>
<path d="M0 0 C0.33 0 0.66 0 1 0 C1 1.98 1 3.96 1 6 C0.67 6 0.34 6 0 6 C0 4.02 0 2.04 0 0 Z " fill="#424210" transform="translate(474,642)"/>
<path d="M0 0 C0.33 0 0.66 0 1 0 C1 1.98 1 3.96 1 6 C0.67 6 0.34 6 0 6 C0 4.02 0 2.04 0 0 Z " fill="#444410" transform="translate(355,642)"/>
<path d="M0 0 C0.66 0.66 1.32 1.32 2 2 C1.67 2.99 1.34 3.98 1 5 C0.67 3.35 0.34 1.7 0 0 Z " fill="#444311" transform="translate(684,631)"/>
<path d="M0 0 C0.66 0.66 1.32 1.32 2 2 C1.67 2.99 1.34 3.98 1 5 C0.67 3.35 0.34 1.7 0 0 Z " fill="#444311" transform="translate(679,620)"/>
<path d="M0 0 C0.66 0.66 1.32 1.32 2 2 C1.67 2.99 1.34 3.98 1 5 C0.67 3.35 0.34 1.7 0 0 Z " fill="#444411" transform="translate(665,585)"/>
<path d="M0 0 C0.66 0.66 1.32 1.32 2 2 C1.67 2.99 1.34 3.98 1 5 C0.67 3.35 0.34 1.7 0 0 Z " fill="#454311" transform="translate(660,571)"/>
<path d="M0 0 C0.33 0.99 0.66 1.98 1 3 C0.34 3.66 -0.32 4.32 -1 5 C-0.67 3.35 -0.34 1.7 0 0 Z " fill="#434311" transform="translate(463,566)"/>
<path d="M0 0 C0.33 0.99 0.66 1.98 1 3 C0.34 3.66 -0.32 4.32 -1 5 C-0.67 3.35 -0.34 1.7 0 0 Z " fill="#444212" transform="translate(470,548)"/>
<path d="M0 0 C0.33 0.99 0.66 1.98 1 3 C0.34 3.66 -0.32 4.32 -1 5 C-0.67 3.35 -0.34 1.7 0 0 Z " fill="#434311" transform="translate(505,457)"/>
<path d="M0 0 C0.66 0.66 1.32 1.32 2 2 C1.67 2.99 1.34 3.98 1 5 C0.67 3.35 0.34 1.7 0 0 Z " fill="#444311" transform="translate(614,436)"/>
<path d="M0 0 C0.33 0.99 0.66 1.98 1 3 C0.34 3.66 -0.32 4.32 -1 5 C-0.67 3.35 -0.34 1.7 0 0 Z " fill="#454412" transform="translate(523,411)"/>
<path d="M0 0 C0.99 0.33 1.98 0.66 3 1 C1.35 1.33 -0.3 1.66 -2 2 C-1.34 1.34 -0.68 0.68 0 0 Z " fill="#000000" transform="translate(485,394)"/>
<path d="M0 0 C0.66 0.66 1.32 1.32 2 2 C1.67 2.99 1.34 3.98 1 5 C0.67 3.35 0.34 1.7 0 0 Z " fill="#444310" transform="translate(597,386)"/>
<path d="M0 0 C1.485 0.99 1.485 0.99 3 2 C2.67 2.66 2.34 3.32 2 4 C1.34 2.68 0.68 1.36 0 0 Z " fill="#444310" transform="translate(536,257)"/>
<path d="M0 0 C1.98 0.99 1.98 0.99 4 2 C3.01 2 2.02 2 1 2 C0.67 1.34 0.34 0.68 0 0 Z " fill="#444411" transform="translate(530,252)"/>
<path d="M0 0 C1.98 0 3.96 0 6 0 C6 0.33 6 0.66 6 1 C4.02 1 2.04 1 0 1 C0 0.67 0 0.34 0 0 Z " fill="#43430F" transform="translate(489,233)"/>
<path d="M0 0 C1.65 0 3.3 0 5 0 C5 0.33 5 0.66 5 1 C3.35 1 1.7 1 0 1 C0 0.67 0 0.34 0 0 Z " fill="#43420F" transform="translate(860,772)"/>
<path d="M0 0 C0.33 0.66 0.66 1.32 1 2 C-0.32 1.67 -1.64 1.34 -3 1 C-2.01 0.67 -1.02 0.34 0 0 Z " fill="#161605" transform="translate(698,659)"/>
<path d="M0 0 C1.65 0 3.3 0 5 0 C5 0.33 5 0.66 5 1 C3.35 1 1.7 1 0 1 C0 0.67 0 0.34 0 0 Z " fill="#000000" transform="translate(748,601)"/>
<path d="M0 0 C1.65 0 3.3 0 5 0 C5 0.33 5 0.66 5 1 C3.35 1 1.7 1 0 1 C0 0.67 0 0.34 0 0 Z " fill="#444310" transform="translate(509,215)"/>
<path d="M0 0 C0.99 0.33 1.98 0.66 3 1 C2.01 1 1.02 1 0 1 C0 0.67 0 0.34 0 0 Z " fill="#444311" transform="translate(808,733)"/>
<path d="M0 0 C0.99 0.495 0.99 0.495 2 1 C1.67 1.66 1.34 2.32 1 3 C0.67 2.01 0.34 1.02 0 0 Z " fill="#414510" transform="translate(732,709)"/>
<path d="M0 0 C0.99 0.495 0.99 0.495 2 1 C1.67 1.66 1.34 2.32 1 3 C0.67 2.01 0.34 1.02 0 0 Z " fill="#444310" transform="translate(720,694)"/>
<path d="M0 0 C1 4 1 4 1 4 Z " fill="#000000" transform="translate(657,661)"/>
<path d="M0 0 C1 4 1 4 1 4 Z " fill="#000000" transform="translate(658,657)"/>
<path d="M0 0 C4 1 4 1 4 1 Z " fill="#000000" transform="translate(680,656)"/>
<path d="M0 0 C4 1 4 1 4 1 Z " fill="#000000" transform="translate(676,655)"/>
<path d="M0 0 C4 1 4 1 4 1 Z " fill="#000000" transform="translate(672,654)"/>
<path d="M0 0 C4 1 4 1 4 1 Z " fill="#000000" transform="translate(668,653)"/>
<path d="M0 0 C0.66 0.33 1.32 0.66 2 1 C1.01 1 0.02 1 -1 1 C-0.67 0.67 -0.34 0.34 0 0 Z " fill="#444312" transform="translate(384,634)"/>
<path d="M0 0 C1 4 1 4 1 4 Z " fill="#000000" transform="translate(739,628)"/>
<path d="M0 0 C1 4 1 4 1 4 Z " fill="#000000" transform="translate(740,624)"/>
<path d="M0 0 C1 4 1 4 1 4 Z " fill="#000000" transform="translate(743,613)"/>
<path d="M0 0 C1 4 1 4 1 4 Z " fill="#444410" transform="translate(446,610)"/>
<path d="M0 0 C1 4 1 4 1 4 Z " fill="#000000" transform="translate(744,609)"/>
<path d="M0 0 C4 1 4 1 4 1 Z " fill="#000000" transform="translate(757,603)"/>
<path d="M0 0 C4 1 4 1 4 1 Z " fill="#000000" transform="translate(753,602)"/>
<path d="M0 0 C1 4 1 4 1 4 Z " fill="#1D1E07" transform="translate(539,370)"/>
<path d="M0 0 C0.99 0.33 1.98 0.66 3 1 C2.01 1 1.02 1 0 1 C0 0.67 0 0.34 0 0 Z " fill="#444311" transform="translate(521,245)"/>
<path d="M0 0 C4 1 4 1 4 1 Z " fill="#444210" transform="translate(495,234)"/>
<path d="M0 0 C4 1 4 1 4 1 Z " fill="#444210" transform="translate(477,216)"/>
<path d="M0 0 C3 1 3 1 3 1 Z " fill="#43430F" transform="translate(830,772)"/>
<path d="M0 0 C3 1 3 1 3 1 Z " fill="#474611" transform="translate(869,771)"/>
<path d="M0 0 C3 1 3 1 3 1 Z " fill="#444311" transform="translate(825,771)"/>
<path d="M0 0 C3 1 3 1 3 1 Z " fill="#444311" transform="translate(879,769)"/>
<path d="M0 0 C3 1 3 1 3 1 Z " fill="#434210" transform="translate(844,751)"/>
<path d="M0 0 C3 1 3 1 3 1 Z " fill="#444310" transform="translate(841,750)"/>
<path d="M0 0 C3 1 3 1 3 1 Z " fill="#43420F" transform="translate(838,749)"/>
<path d="M0 0 C3 1 3 1 3 1 Z " fill="#44420F" transform="translate(835,748)"/>
<path d="M0 0 C3 1 3 1 3 1 Z " fill="#000000" transform="translate(711,691)"/>
<path d="M0 0 C3 1 3 1 3 1 Z " fill="#000000" transform="translate(707,690)"/>
<path d="M0 0 C3 1 3 1 3 1 Z " fill="#000000" transform="translate(703,689)"/>
<path d="M0 0 C3 1 3 1 3 1 Z " fill="#000000" transform="translate(699,688)"/>
<path d="M0 0 C3 1 3 1 3 1 Z " fill="#000000" transform="translate(695,687)"/>
<path d="M0 0 C3 1 3 1 3 1 Z " fill="#000000" transform="translate(688,685)"/>
<path d="M0 0 C3 1 3 1 3 1 Z " fill="#000000" transform="translate(684,684)"/>
<path d="M0 0 C3 1 3 1 3 1 Z " fill="#000000" transform="translate(680,683)"/>
<path d="M0 0 C3 1 3 1 3 1 Z " fill="#000000" transform="translate(676,682)"/>
<path d="M0 0 C3 1 3 1 3 1 Z " fill="#000000" transform="translate(672,681)"/>
<path d="M0 0 C3 1 3 1 3 1 Z " fill="#000000" transform="translate(668,680)"/>
<path d="M0 0 C3 1 3 1 3 1 Z " fill="#000000" transform="translate(665,679)"/>
<path d="M0 0 C3 1 3 1 3 1 Z " fill="#000000" transform="translate(661,678)"/>
<path d="M0 0 C3 1 3 1 3 1 Z " fill="#000000" transform="translate(657,677)"/>
<path d="" fill="#000000" transform="translate(0,0)"/>
<path d="" fill="#000000" transform="translate(0,0)"/>
<path d="" fill="#000000" transform="translate(0,0)"/>
<path d="" fill="#000000" transform="translate(0,0)"/>
<path d="" fill="#000000" transform="translate(0,0)"/>
<path d="" fill="#000000" transform="translate(0,0)"/>
<path d="" fill="#000000" transform="translate(0,0)"/>
<path d="" fill="#000000" transform="translate(0,0)"/>
<path d="" fill="#000000" transform="translate(0,0)"/>
<path d="M0 0 C3 1 3 1 3 1 Z " fill="#424210" transform="translate(456,638)"/>
<path d="" fill="#000000" transform="translate(0,0)"/>
<path d="M0 0 C3 1 3 1 3 1 Z " fill="#434211" transform="translate(380,636)"/>
<path d="" fill="#000000" transform="translate(0,0)"/>
<path d="" fill="#000000" transform="translate(0,0)"/>
<path d="" fill="#000000" transform="translate(0,0)"/>
<path d="" fill="#43420F" transform="translate(0,0)"/>
<path d="" fill="#000000" transform="translate(0,0)"/>
<path d="" fill="#000000" transform="translate(0,0)"/>
<path d="" fill="#46430F" transform="translate(0,0)"/>
<path d="" fill="#000000" transform="translate(0,0)"/>
<path d="" fill="#45430F" transform="translate(0,0)"/>
<path d="" fill="#434211" transform="translate(0,0)"/>
<path d="" fill="#444311" transform="translate(0,0)"/>
<path d="" fill="#454212" transform="translate(0,0)"/>
<path d="" fill="#454310" transform="translate(0,0)"/>
<path d="" fill="#444311" transform="translate(0,0)"/>
<path d="" fill="#444310" transform="translate(0,0)"/>
<path d="" fill="#454311" transform="translate(0,0)"/>
<path d="" fill="#44430F" transform="translate(0,0)"/>
<path d="" fill="#44420F" transform="translate(0,0)"/>
<path d="" fill="#444411" transform="translate(0,0)"/>
<path d="" fill="#444410" transform="translate(0,0)"/>
<path d="" fill="#454411" transform="translate(0,0)"/>
<path d="" fill="#44440F" transform="translate(0,0)"/>
<path d="" fill="#44420E" transform="translate(0,0)"/>
<path d="" fill="#43430F" transform="translate(0,0)"/>
<path d="" fill="#444210" transform="translate(0,0)"/>
<path d="" fill="#454412" transform="translate(0,0)"/>
<path d="" fill="#44420F" transform="translate(0,0)"/>
<path d="" fill="#434311" transform="translate(0,0)"/>
<path d="" fill="#454311" transform="translate(0,0)"/>
<path d="" fill="#434210" transform="translate(0,0)"/>
<path d="" fill="#45440F" transform="translate(0,0)"/>
<path d="" fill="#444210" transform="translate(0,0)"/>
<path d="" fill="#434210" transform="translate(0,0)"/>
<path d="" fill="#44420F" transform="translate(0,0)"/>
<path d="" fill="#444511" transform="translate(0,0)"/>
<path d="" fill="#454311" transform="translate(0,0)"/>
<path d="" fill="#444210" transform="translate(0,0)"/>
<path d="" fill="#434110" transform="translate(0,0)"/>
<path d="" fill="#44440F" transform="translate(0,0)"/>
<path d="" fill="#43420F" transform="translate(0,0)"/>
<path d="" fill="#434210" transform="translate(0,0)"/>
<path d="" fill="#454313" transform="translate(0,0)"/>
<path d="" fill="#424310" transform="translate(0,0)"/>
<path d="" fill="#444210" transform="translate(0,0)"/>
<path d="" fill="#444510" transform="translate(0,0)"/>
<path d="" fill="#44430F" transform="translate(0,0)"/>
<path d="" fill="#434411" transform="translate(0,0)"/>
<path d="" fill="#43420F" transform="translate(0,0)"/>
<path d="" fill="#444310" transform="translate(0,0)"/>
<path d="" fill="#44430F" transform="translate(0,0)"/>
<path d="" fill="#45430F" transform="translate(0,0)"/>
<path d="" fill="#434410" transform="translate(0,0)"/>
<path d="" fill="#434613" transform="translate(0,0)"/>
<path d="" fill="#454311" transform="translate(0,0)"/>
<path d="" fill="#454311" transform="translate(0,0)"/>
<path d="" fill="#444611" transform="translate(0,0)"/>
<path d="" fill="#434411" transform="translate(0,0)"/>
<path d="" fill="#434213" transform="translate(0,0)"/>
<path d="" fill="#454311" transform="translate(0,0)"/>
<path d="" fill="#44430E" transform="translate(0,0)"/>
<path d="" fill="#43420F" transform="translate(0,0)"/>
<path d="" fill="#44420F" transform="translate(0,0)"/>
<path d="" fill="#464512" transform="translate(0,0)"/>
<path d="" fill="#464312" transform="translate(0,0)"/>
<path d="" fill="#464312" transform="translate(0,0)"/>
<path d="" fill="#434310" transform="translate(0,0)"/>
<path d="" fill="#454612" transform="translate(0,0)"/>
<path d="" fill="#444411" transform="translate(0,0)"/>
<path d="" fill="#434210" transform="translate(0,0)"/>
<path d="" fill="#44420F" transform="translate(0,0)"/>
<path d="" fill="#444310" transform="translate(0,0)"/>
<path d="" fill="#44430F" transform="translate(0,0)"/>
<path d="" fill="#45420F" transform="translate(0,0)"/>
<path d="" fill="#444410" transform="translate(0,0)"/>
<path d="" fill="#43430F" transform="translate(0,0)"/>
<path d="" fill="#45430F" transform="translate(0,0)"/>
<path d="" fill="#434210" transform="translate(0,0)"/>
<path d="" fill="#444210" transform="translate(0,0)"/>
<path d="" fill="#444211" transform="translate(0,0)"/>
<path d="" fill="#454511" transform="translate(0,0)"/>
<path d="" fill="#454412" transform="translate(0,0)"/>
<path d="" fill="#42420F" transform="translate(0,0)"/>
<path d="" fill="#45440F" transform="translate(0,0)"/>
<path d="" fill="#454310" transform="translate(0,0)"/>
<path d="" fill="#454310" transform="translate(0,0)"/>
<path d="" fill="#434212" transform="translate(0,0)"/>
<path d="" fill="#444410" transform="translate(0,0)"/>
<path d="" fill="#474410" transform="translate(0,0)"/>
<path d="" fill="#444611" transform="translate(0,0)"/>
<path d="" fill="#434210" transform="translate(0,0)"/>
<path d="" fill="#464411" transform="translate(0,0)"/>
<path d="" fill="#43410F" transform="translate(0,0)"/>
<path d="" fill="#444210" transform="translate(0,0)"/>
<path d="" fill="#44420F" transform="translate(0,0)"/>
<path d="" fill="#433F12" transform="translate(0,0)"/>
<path d="" fill="#464313" transform="translate(0,0)"/>
<path d="" fill="#434310" transform="translate(0,0)"/>
<path d="M0 0 C3 1 3 1 3 1 Z " fill="#000000" transform="translate(544,430)"/>
<path d="M0 0 C3 1 3 1 3 1 Z " fill="#000000" transform="translate(547,429)"/>
<path d="" fill="#43430F" transform="translate(0,0)"/>
<path d="" fill="#000000" transform="translate(0,0)"/>
<path d="M0 0 C3 1 3 1 3 1 Z " fill="#000000" transform="translate(552,427)"/>
<path d="" fill="#454411" transform="translate(0,0)"/>
<path d="" fill="#44420F" transform="translate(0,0)"/>
<path d="" fill="#000000" transform="translate(0,0)"/>
<path d="" fill="#454412" transform="translate(0,0)"/>
<path d="" fill="#434310" transform="translate(0,0)"/>
<path d="" fill="#000000" transform="translate(0,0)"/>
<path d="" fill="#434210" transform="translate(0,0)"/>
<path d="" fill="#454310" transform="translate(0,0)"/>
<path d="" fill="#000000" transform="translate(0,0)"/>
<path d="" fill="#46420E" transform="translate(0,0)"/>
<path d="" fill="#444310" transform="translate(0,0)"/>
<path d="" fill="#43420F" transform="translate(0,0)"/>
<path d="" fill="#000000" transform="translate(0,0)"/>
<path d="" fill="#44430F" transform="translate(0,0)"/>
<path d="" fill="#434310" transform="translate(0,0)"/>
<path d="" fill="#000000" transform="translate(0,0)"/>
<path d="" fill="#000000" transform="translate(0,0)"/>
<path d="" fill="#45430F" transform="translate(0,0)"/>
<path d="" fill="#000000" transform="translate(0,0)"/>
<path d="" fill="#444410" transform="translate(0,0)"/>
<path d="" fill="#000000" transform="translate(0,0)"/>
<path d="" fill="#454410" transform="translate(0,0)"/>
<path d="" fill="#444312" transform="translate(0,0)"/>
<path d="" fill="#000000" transform="translate(0,0)"/>
<path d="" fill="#454511" transform="translate(0,0)"/>
<path d="" fill="#45440F" transform="translate(0,0)"/>
<path d="" fill="#000000" transform="translate(0,0)"/>
<path d="" fill="#000000" transform="translate(0,0)"/>
<path d="" fill="#444410" transform="translate(0,0)"/>
<path d="" fill="#434410" transform="translate(0,0)"/>
<path d="" fill="#46430F" transform="translate(0,0)"/>
<path d="" fill="#000000" transform="translate(0,0)"/>
<path d="" fill="#43430F" transform="translate(0,0)"/>
<path d="" fill="#444311" transform="translate(0,0)"/>
<path d="" fill="#45440F" transform="translate(0,0)"/>
<path d="" fill="#000000" transform="translate(0,0)"/>
<path d="" fill="#444211" transform="translate(0,0)"/>
<path d="M0 0 C3 1 3 1 3 1 Z " fill="#000000" transform="translate(477,397)"/>
<path d="M0 0 C3 1 3 1 3 1 Z " fill="#000000" transform="translate(480,396)"/>
<path d="" fill="#434411" transform="translate(0,0)"/>
<path d="" fill="#000000" transform="translate(0,0)"/>
<path d="M0 0 C3 1 3 1 3 1 Z " fill="#000000" transform="translate(488,393)"/>
<path d="" fill="#444113" transform="translate(0,0)"/>
<path d="M0 0 C3 1 3 1 3 1 Z " fill="#000000" transform="translate(491,392)"/>
<path d="" fill="#000000" transform="translate(0,0)"/>
<path d="" fill="#454412" transform="translate(0,0)"/>
<path d="M0 0 C3 1 3 1 3 1 Z " fill="#000000" transform="translate(496,390)"/>
<path d="M0 0 C0.66 0 1.32 0 2 0 C1.67 0.66 1.34 1.32 1 2 C0.67 1.34 0.34 0.68 0 0 Z " fill="#1C1C07" transform="translate(499,389)"/>
<path d="" fill="#000000" transform="translate(0,0)"/>
<path d="" fill="#454410" transform="translate(0,0)"/>
<path d="" fill="#000000" transform="translate(0,0)"/>
<path d="" fill="#444210" transform="translate(0,0)"/>
<path d="" fill="#434210" transform="translate(0,0)"/>
<path d="" fill="#000000" transform="translate(0,0)"/>
<path d="" fill="#000000" transform="translate(0,0)"/>
<path d="" fill="#44420F" transform="translate(0,0)"/>
<path d="" fill="#434310" transform="translate(0,0)"/>
<path d="" fill="#000000" transform="translate(0,0)"/>
<path d="M0 0 C3 1 3 1 3 1 Z " fill="#000000" transform="translate(471,377)"/>
<path d="" fill="#43430F" transform="translate(0,0)"/>
<path d="" fill="#000000" transform="translate(0,0)"/>
<path d="M0 0 C3 1 3 1 3 1 Z " fill="#000000" transform="translate(479,374)"/>
<path d="" fill="#454512" transform="translate(0,0)"/>
<path d="" fill="#45420E" transform="translate(0,0)"/>
<path d="" fill="#444210" transform="translate(0,0)"/>
<path d="M0 0 C3 1 3 1 3 1 Z " fill="#000000" transform="translate(490,370)"/>
<path d="" fill="#44420F" transform="translate(0,0)"/>
<path d="" fill="#464312" transform="translate(0,0)"/>
<path d="" fill="#434310" transform="translate(0,0)"/>
<path d="M0 0 C3 1 3 1 3 1 Z " fill="#000000" transform="translate(498,367)"/>
<path d="" fill="#444310" transform="translate(0,0)"/>
<path d="M0 0 C3 1 3 1 3 1 Z " fill="#000000" transform="translate(506,364)"/>
<path d="" fill="#434410" transform="translate(0,0)"/>
<path d="" fill="#454411" transform="translate(0,0)"/>
<path d="" fill="#45430F" transform="translate(0,0)"/>
<path d="" fill="#454313" transform="translate(0,0)"/>
<path d="" fill="#444310" transform="translate(0,0)"/>
<path d="" fill="#444310" transform="translate(0,0)"/>
<path d="" fill="#444310" transform="translate(0,0)"/>
<path d="" fill="#444312" transform="translate(0,0)"/>
<path d="" fill="#434413" transform="translate(0,0)"/>
<path d="" fill="#43410E" transform="translate(0,0)"/>
<path d="" fill="#44420D" transform="translate(0,0)"/>
<path d="" fill="#444111" transform="translate(0,0)"/>
<path d="" fill="#48470F" transform="translate(0,0)"/>
<path d="" fill="#434210" transform="translate(0,0)"/>
<path d="" fill="#454410" transform="translate(0,0)"/>
<path d="" fill="#44400F" transform="translate(0,0)"/>
<path d="" fill="#44430F" transform="translate(0,0)"/>
<path d="" fill="#444111" transform="translate(0,0)"/>
<path d="" fill="#444618" transform="translate(0,0)"/>
<path d="" fill="#414410" transform="translate(0,0)"/>
<path d="" fill="#444310" transform="translate(0,0)"/>
<path d="" fill="#454410" transform="translate(0,0)"/>
<path d="" fill="#43420F" transform="translate(0,0)"/>
<path d="" fill="#44430F" transform="translate(0,0)"/>
<path d="" fill="#464413" transform="translate(0,0)"/>
<path d="" fill="#434410" transform="translate(0,0)"/>
<path d="" fill="#434310" transform="translate(0,0)"/>
<path d="" fill="#444111" transform="translate(0,0)"/>
<path d="" fill="#444110" transform="translate(0,0)"/>
<path d="" fill="#474412" transform="translate(0,0)"/>
<path d="" fill="#464B16" transform="translate(0,0)"/>
<path d="" fill="#44440F" transform="translate(0,0)"/>
<path d="" fill="#434411" transform="translate(0,0)"/>
<path d="" fill="#44420E" transform="translate(0,0)"/>
<path d="" fill="#444816" transform="translate(0,0)"/>
<path d="" fill="#454411" transform="translate(0,0)"/>
<path d="" fill="#444310" transform="translate(0,0)"/>
<path d="" fill="#434410" transform="translate(0,0)"/>
<path d="" fill="#434310" transform="translate(0,0)"/>
<path d="" fill="#434817" transform="translate(0,0)"/>
<path d="" fill="#494516" transform="translate(0,0)"/>
<path d="" fill="#434311" transform="translate(0,0)"/>
<path d="" fill="#474613" transform="translate(0,0)"/>
<path d="" fill="#434210" transform="translate(0,0)"/>
<path d="" fill="#484612" transform="translate(0,0)"/>
<path d="" fill="#434310" transform="translate(0,0)"/>
<path d="" fill="#464513" transform="translate(0,0)"/>
<path d="" fill="#43430F" transform="translate(0,0)"/>
<path d="M0 0 C3 1 3 1 3 1 Z " fill="#434312" transform="translate(466,218)"/>
<path d="M0 0 C3 1 3 1 3 1 Z " fill="#44430F" transform="translate(471,217)"/>
<path d="M0 0 C3 1 3 1 3 1 Z " fill="#434310" transform="translate(516,216)"/>
<path d="M0 0 C2 1 2 1 2 1 Z " fill="#444310" transform="translate(875,770)"/>
<path d="M0 0 C2 1 2 1 2 1 Z " fill="#444312" transform="translate(817,769)"/>
<path d="M0 0 C2 1 2 1 2 1 Z " fill="#434210" transform="translate(884,768)"/>
<path d="M0 0 C2 1 2 1 2 1 Z " fill="#434211" transform="translate(810,767)"/>
<path d="M0 0 C2 1 2 1 2 1 Z " fill="#454310" transform="translate(891,766)"/>
<path d="M0 0 C2 1 2 1 2 1 Z " fill="#474514" transform="translate(894,765)"/>
<path d="M0 0 C2 1 2 1 2 1 Z " fill="#44420F" transform="translate(828,745)"/>
<path d="M0 0 C2 1 2 1 2 1 Z " fill="#444310" transform="translate(822,742)"/>
<path d="M0 0 C2 1 2 1 2 1 Z " fill="#444312" transform="translate(820,741)"/>
<path d="M0 0 C2 1 2 1 2 1 Z " fill="#43420F" transform="translate(817,739)"/>
<path d="M0 0 C2 1 2 1 2 1 Z " fill="#454411" transform="translate(815,738)"/>
<path d="M0 0 C2 1 2 1 2 1 Z " fill="#424310" transform="translate(812,736)"/>
<path d="M0 0 C2 1 2 1 2 1 Z " fill="#454412" transform="translate(805,731)"/>
<path d="M0 0 C2 1 2 1 2 1 Z " fill="#444310" transform="translate(797,724)"/>
<path d="" fill="#484615" transform="translate(0,0)"/>
<path d="" fill="#43420D" transform="translate(0,0)"/>
<path d="" fill="#444311" transform="translate(0,0)"/>
<path d="" fill="#444210" transform="translate(0,0)"/>
<path d="M0 0 C2 1 2 1 2 1 Z " fill="#000000" transform="translate(715,692)"/>
<path d="M0 0 C2 1 2 1 2 1 Z " fill="#000000" transform="translate(692,686)"/>
<path d="" fill="#474413" transform="translate(0,0)"/>
<path d="" fill="#424313" transform="translate(0,0)"/>
<path d="" fill="#444310" transform="translate(0,0)"/>
<path d="" fill="#0C0C03" transform="translate(0,0)"/>
<path d="" fill="#000000" transform="translate(0,0)"/>
<path d="" fill="#474515" transform="translate(0,0)"/>
<path d="" fill="#44420E" transform="translate(0,0)"/>
<path d="" fill="#42420E" transform="translate(0,0)"/>
<path d="" fill="#44420E" transform="translate(0,0)"/>
<path d="" fill="#434210" transform="translate(0,0)"/>
<path d="" fill="#44430F" transform="translate(0,0)"/>
<path d="" fill="#444311" transform="translate(0,0)"/>
<path d="" fill="#44420F" transform="translate(0,0)"/>
<path d="" fill="#434310" transform="translate(0,0)"/>
<path d="M0 0 C2 1 2 1 2 1 Z " fill="#43440F" transform="translate(454,637)"/>
<path d="" fill="#464114" transform="translate(0,0)"/>
<path d="M0 0 C2 1 2 1 2 1 Z " fill="#44420F" transform="translate(386,633)"/>
<path d="" fill="#47440F" transform="translate(0,0)"/>
<path d="M0 0 C2 1 2 1 2 1 Z " fill="#454311" transform="translate(388,632)"/>
<path d="" fill="#444411" transform="translate(0,0)"/>
<path d="" fill="#414012" transform="translate(0,0)"/>
<path d="" fill="#444210" transform="translate(0,0)"/>
<path d="" fill="#43420F" transform="translate(0,0)"/>
<path d="M0 0 C2 1 2 1 2 1 Z " fill="#43440F" transform="translate(392,629)"/>
<path d="" fill="#444310" transform="translate(0,0)"/>
<path d="" fill="#434310" transform="translate(0,0)"/>
<path d="" fill="#454111" transform="translate(0,0)"/>
<path d="" fill="#000000" transform="translate(0,0)"/>
<path d="" fill="#444210" transform="translate(0,0)"/>
<path d="" fill="#444210" transform="translate(0,0)"/>
<path d="" fill="#43430F" transform="translate(0,0)"/>
<path d="" fill="#434211" transform="translate(0,0)"/>
<path d="" fill="#444212" transform="translate(0,0)"/>
<path d="" fill="#444210" transform="translate(0,0)"/>
<path d="" fill="#43420F" transform="translate(0,0)"/>
<path d="" fill="#444210" transform="translate(0,0)"/>
<path d="" fill="#44430F" transform="translate(0,0)"/>
<path d="" fill="#44420F" transform="translate(0,0)"/>
<path d="" fill="#444311" transform="translate(0,0)"/>
<path d="" fill="#434211" transform="translate(0,0)"/>
<path d="" fill="#44420F" transform="translate(0,0)"/>
<path d="" fill="#444411" transform="translate(0,0)"/>
<path d="" fill="#444311" transform="translate(0,0)"/>
<path d="" fill="#454513" transform="translate(0,0)"/>
<path d="" fill="#444311" transform="translate(0,0)"/>
<path d="" fill="#444310" transform="translate(0,0)"/>
<path d="" fill="#444410" transform="translate(0,0)"/>
<path d="" fill="#43420F" transform="translate(0,0)"/>
<path d="" fill="#45430F" transform="translate(0,0)"/>
<path d="" fill="#434411" transform="translate(0,0)"/>
<path d="" fill="#454112" transform="translate(0,0)"/>
<path d="" fill="#444210" transform="translate(0,0)"/>
<path d="" fill="#444210" transform="translate(0,0)"/>
<path d="" fill="#474513" transform="translate(0,0)"/>
<path d="" fill="#454210" transform="translate(0,0)"/>
<path d="" fill="#43430F" transform="translate(0,0)"/>
<path d="" fill="#454310" transform="translate(0,0)"/>
<path d="" fill="#46440F" transform="translate(0,0)"/>
<path d="" fill="#44420F" transform="translate(0,0)"/>
<path d="" fill="#45430F" transform="translate(0,0)"/>
<path d="" fill="#444310" transform="translate(0,0)"/>
<path d="" fill="#434210" transform="translate(0,0)"/>
<path d="" fill="#42420E" transform="translate(0,0)"/>
<path d="" fill="#444310" transform="translate(0,0)"/>
<path d="" fill="#464515" transform="translate(0,0)"/>
<path d="" fill="#444311" transform="translate(0,0)"/>
<path d="" fill="#434110" transform="translate(0,0)"/>
<path d="" fill="#444211" transform="translate(0,0)"/>
<path d="" fill="#454310" transform="translate(0,0)"/>
<path d="" fill="#43430F" transform="translate(0,0)"/>
<path d="" fill="#444311" transform="translate(0,0)"/>
<path d="" fill="#43420F" transform="translate(0,0)"/>
<path d="" fill="#444211" transform="translate(0,0)"/>
<path d="" fill="#444212" transform="translate(0,0)"/>
<path d="" fill="#44420F" transform="translate(0,0)"/>
<path d="" fill="#434310" transform="translate(0,0)"/>
<path d="" fill="#44420F" transform="translate(0,0)"/>
<path d="" fill="#434411" transform="translate(0,0)"/>
<path d="" fill="#44420F" transform="translate(0,0)"/>
<path d="" fill="#454411" transform="translate(0,0)"/>
<path d="" fill="#43430F" transform="translate(0,0)"/>
<path d="" fill="#444210" transform="translate(0,0)"/>
<path d="" fill="#454411" transform="translate(0,0)"/>
<path d="" fill="#444210" transform="translate(0,0)"/>
<path d="" fill="#444210" transform="translate(0,0)"/>
<path d="" fill="#444310" transform="translate(0,0)"/>
<path d="" fill="#434411" transform="translate(0,0)"/>
<path d="" fill="#434310" transform="translate(0,0)"/>
<path d="" fill="#484D17" transform="translate(0,0)"/>
<path d="" fill="#44430F" transform="translate(0,0)"/>
<path d="" fill="#434310" transform="translate(0,0)"/>
<path d="" fill="#464310" transform="translate(0,0)"/>
<path d="" fill="#424210" transform="translate(0,0)"/>
<path d="" fill="#444210" transform="translate(0,0)"/>
<path d="" fill="#434410" transform="translate(0,0)"/>
<path d="" fill="#444210" transform="translate(0,0)"/>
<path d="" fill="#4A4615" transform="translate(0,0)"/>
<path d="" fill="#45430F" transform="translate(0,0)"/>
<path d="" fill="#44430F" transform="translate(0,0)"/>
<path d="" fill="#434310" transform="translate(0,0)"/>
<path d="" fill="#444312" transform="translate(0,0)"/>
<path d="" fill="#44420F" transform="translate(0,0)"/>
<path d="" fill="#44420F" transform="translate(0,0)"/>
<path d="" fill="#44420E" transform="translate(0,0)"/>
<path d="" fill="#434410" transform="translate(0,0)"/>
<path d="" fill="#454711" transform="translate(0,0)"/>
<path d="" fill="#434310" transform="translate(0,0)"/>
<path d="" fill="#434410" transform="translate(0,0)"/>
<path d="" fill="#44440F" transform="translate(0,0)"/>
<path d="" fill="#454212" transform="translate(0,0)"/>
<path d="" fill="#44430F" transform="translate(0,0)"/>
<path d="" fill="#434310" transform="translate(0,0)"/>
<path d="" fill="#43430E" transform="translate(0,0)"/>
<path d="" fill="#444310" transform="translate(0,0)"/>
<path d="" fill="#44420F" transform="translate(0,0)"/>
<path d="" fill="#464411" transform="translate(0,0)"/>
<path d="" fill="#434310" transform="translate(0,0)"/>
<path d="" fill="#454310" transform="translate(0,0)"/>
<path d="" fill="#454411" transform="translate(0,0)"/>
<path d="" fill="#434310" transform="translate(0,0)"/>
<path d="" fill="#43420F" transform="translate(0,0)"/>
<path d="" fill="#44440F" transform="translate(0,0)"/>
<path d="" fill="#454310" transform="translate(0,0)"/>
<path d="" fill="#434010" transform="translate(0,0)"/>
<path d="" fill="#434310" transform="translate(0,0)"/>
<path d="" fill="#444410" transform="translate(0,0)"/>
<path d="" fill="#444211" transform="translate(0,0)"/>
<path d="" fill="#454113" transform="translate(0,0)"/>
<path d="" fill="#454310" transform="translate(0,0)"/>
<path d="" fill="#454310" transform="translate(0,0)"/>
<path d="" fill="#444210" transform="translate(0,0)"/>
<path d="" fill="#45430F" transform="translate(0,0)"/>
<path d="" fill="#444310" transform="translate(0,0)"/>
<path d="" fill="#44430F" transform="translate(0,0)"/>
<path d="" fill="#434210" transform="translate(0,0)"/>
<path d="" fill="#44420F" transform="translate(0,0)"/>
<path d="" fill="#434211" transform="translate(0,0)"/>
<path d="" fill="#454210" transform="translate(0,0)"/>
<path d="" fill="#45420F" transform="translate(0,0)"/>
<path d="" fill="#45430F" transform="translate(0,0)"/>
<path d="" fill="#454412" transform="translate(0,0)"/>
<path d="" fill="#44420F" transform="translate(0,0)"/>
<path d="" fill="#434310" transform="translate(0,0)"/>
<path d="" fill="#464812" transform="translate(0,0)"/>
<path d="" fill="#444410" transform="translate(0,0)"/>
<path d="" fill="#434210" transform="translate(0,0)"/>
<path d="" fill="#434311" transform="translate(0,0)"/>
<path d="" fill="#454413" transform="translate(0,0)"/>
<path d="" fill="#43410F" transform="translate(0,0)"/>
<path d="" fill="#444310" transform="translate(0,0)"/>
<path d="" fill="#434411" transform="translate(0,0)"/>
<path d="" fill="#484B13" transform="translate(0,0)"/>
<path d="" fill="#454312" transform="translate(0,0)"/>
<path d="" fill="#44430F" transform="translate(0,0)"/>
<path d="" fill="#434310" transform="translate(0,0)"/>
<path d="" fill="#424411" transform="translate(0,0)"/>
<path d="" fill="#454310" transform="translate(0,0)"/>
<path d="" fill="#43420F" transform="translate(0,0)"/>
<path d="" fill="#444211" transform="translate(0,0)"/>
<path d="" fill="#434310" transform="translate(0,0)"/>
<path d="" fill="#444311" transform="translate(0,0)"/>
<path d="" fill="#464713" transform="translate(0,0)"/>
<path d="" fill="#444310" transform="translate(0,0)"/>
<path d="" fill="#43430F" transform="translate(0,0)"/>
<path d="" fill="#45420F" transform="translate(0,0)"/>
<path d="" fill="#444311" transform="translate(0,0)"/>
<path d="M0 0 C2 1 2 1 2 1 Z " fill="#000000" transform="translate(540,432)"/>
<path d="M0 0 C2 1 2 1 2 1 Z " fill="#000000" transform="translate(542,431)"/>
<path d="" fill="#434310" transform="translate(0,0)"/>
<path d="" fill="#444410" transform="translate(0,0)"/>
<path d="" fill="#434310" transform="translate(0,0)"/>
<path d="" fill="#464411" transform="translate(0,0)"/>
<path d="M0 0 C2 1 2 1 2 1 Z " fill="#000000" transform="translate(550,428)"/>
<path d="" fill="#434411" transform="translate(0,0)"/>
<path d="" fill="#44430F" transform="translate(0,0)"/>
<path d="" fill="#454310" transform="translate(0,0)"/>
<path d="" fill="#000000" transform="translate(0,0)"/>
<path d="" fill="#444211" transform="translate(0,0)"/>
<path d="" fill="#000000" transform="translate(0,0)"/>
<path d="" fill="#434210" transform="translate(0,0)"/>
<path d="" fill="#000000" transform="translate(0,0)"/>
<path d="" fill="#434410" transform="translate(0,0)"/>
<path d="" fill="#444210" transform="translate(0,0)"/>
<path d="" fill="#444310" transform="translate(0,0)"/>
<path d="" fill="#434310" transform="translate(0,0)"/>
<path d="" fill="#444210" transform="translate(0,0)"/>
<path d="" fill="#000000" transform="translate(0,0)"/>
<path d="" fill="#444311" transform="translate(0,0)"/>
<path d="" fill="#000000" transform="translate(0,0)"/>
<path d="" fill="#444210" transform="translate(0,0)"/>
<path d="" fill="#444310" transform="translate(0,0)"/>
<path d="" fill="#44430F" transform="translate(0,0)"/>
<path d="" fill="#424310" transform="translate(0,0)"/>
<path d="" fill="#434310" transform="translate(0,0)"/>
<path d="" fill="#000000" transform="translate(0,0)"/>
<path d="" fill="#444310" transform="translate(0,0)"/>
<path d="" fill="#444310" transform="translate(0,0)"/>
<path d="M0 0 C2 1 2 1 2 1 Z " fill="#000000" transform="translate(475,398)"/>
<path d="" fill="#000000" transform="translate(0,0)"/>
<path d="" fill="#434310" transform="translate(0,0)"/>
<path d="" fill="#444410" transform="translate(0,0)"/>
<path d="" fill="#000000" transform="translate(0,0)"/>
<path d="" fill="#434410" transform="translate(0,0)"/>
<path d="" fill="#434210" transform="translate(0,0)"/>
<path d="" fill="#000000" transform="translate(0,0)"/>
<path d="M0 0 C2 1 2 1 2 1 Z " fill="#000000" transform="translate(494,391)"/>
<path d="" fill="#000000" transform="translate(0,0)"/>
<path d="" fill="#000000" transform="translate(0,0)"/>
<path d="" fill="#444310" transform="translate(0,0)"/>
<path d="" fill="#000000" transform="translate(0,0)"/>
<path d="" fill="#434210" transform="translate(0,0)"/>
<path d="M0 0 C2 1 2 1 2 1 Z " fill="#000000" transform="translate(466,379)"/>
<path d="M0 0 C2 1 2 1 2 1 Z " fill="#000000" transform="translate(469,378)"/>
<path d="" fill="#444210" transform="translate(0,0)"/>
<path d="M0 0 C2 1 2 1 2 1 Z " fill="#000000" transform="translate(474,376)"/>
<path d="M0 0 C2 1 2 1 2 1 Z " fill="#000000" transform="translate(477,375)"/>
<path d="M0 0 C2 1 2 1 2 1 Z " fill="#000000" transform="translate(482,373)"/>
<path d="M0 0 C2 1 2 1 2 1 Z " fill="#000000" transform="translate(485,372)"/>
<path d="M0 0 C2 1 2 1 2 1 Z " fill="#000000" transform="translate(488,371)"/>
<path d="M0 0 C2 1 2 1 2 1 Z " fill="#000000" transform="translate(493,369)"/>
<path d="M0 0 C2 1 2 1 2 1 Z " fill="#000000" transform="translate(496,368)"/>
<path d="" fill="#444310" transform="translate(0,0)"/>
<path d="M0 0 C2 1 2 1 2 1 Z " fill="#000000" transform="translate(501,366)"/>
<path d="" fill="#44430F" transform="translate(0,0)"/>
<path d="M0 0 C2 1 2 1 2 1 Z " fill="#000000" transform="translate(504,365)"/>
<path d="" fill="#434210" transform="translate(0,0)"/>
<path d="" fill="#434310" transform="translate(0,0)"/>
<path d="" fill="#43420F" transform="translate(0,0)"/>
<path d="" fill="#454310" transform="translate(0,0)"/>
<path d="" fill="#44420F" transform="translate(0,0)"/>
<path d="" fill="#444310" transform="translate(0,0)"/>
<path d="" fill="#454310" transform="translate(0,0)"/>
<path d="" fill="#474912" transform="translate(0,0)"/>
<path d="" fill="#444310" transform="translate(0,0)"/>
<path d="" fill="#434310" transform="translate(0,0)"/>
<path d="" fill="#444310" transform="translate(0,0)"/>
<path d="" fill="#43420F" transform="translate(0,0)"/>
<path d="" fill="#434310" transform="translate(0,0)"/>
<path d="" fill="#444310" transform="translate(0,0)"/>
<path d="" fill="#44420F" transform="translate(0,0)"/>
<path d="" fill="#444311" transform="translate(0,0)"/>
<path d="" fill="#444310" transform="translate(0,0)"/>
<path d="" fill="#444311" transform="translate(0,0)"/>
<path d="" fill="#464410" transform="translate(0,0)"/>
<path d="" fill="#434310" transform="translate(0,0)"/>
<path d="" fill="#44420F" transform="translate(0,0)"/>
<path d="" fill="#444210" transform="translate(0,0)"/>
<path d="" fill="#444310" transform="translate(0,0)"/>
<path d="" fill="#444210" transform="translate(0,0)"/>
<path d="" fill="#44420F" transform="translate(0,0)"/>
<path d="" fill="#43430F" transform="translate(0,0)"/>
<path d="" fill="#444310" transform="translate(0,0)"/>
<path d="" fill="#464511" transform="translate(0,0)"/>
<path d="" fill="#454611" transform="translate(0,0)"/>
<path d="" fill="#454310" transform="translate(0,0)"/>
<path d="" fill="#434210" transform="translate(0,0)"/>
<path d="" fill="#434210" transform="translate(0,0)"/>
<path d="" fill="#444311" transform="translate(0,0)"/>
<path d="" fill="#45440F" transform="translate(0,0)"/>
<path d="" fill="#434110" transform="translate(0,0)"/>
<path d="" fill="#444210" transform="translate(0,0)"/>
<path d="" fill="#43430F" transform="translate(0,0)"/>
<path d="" fill="#44420F" transform="translate(0,0)"/>
<path d="" fill="#43420F" transform="translate(0,0)"/>
<path d="" fill="#43420F" transform="translate(0,0)"/>
<path d="" fill="#454410" transform="translate(0,0)"/>
<path d="" fill="#444410" transform="translate(0,0)"/>
<path d="" fill="#434310" transform="translate(0,0)"/>
<path d="" fill="#44420F" transform="translate(0,0)"/>
<path d="" fill="#444310" transform="translate(0,0)"/>
<path d="" fill="#434310" transform="translate(0,0)"/>
<path d="" fill="#444311" transform="translate(0,0)"/>
<path d="" fill="#44430F" transform="translate(0,0)"/>
<path d="" fill="#444313" transform="translate(0,0)"/>
<path d="" fill="#44430F" transform="translate(0,0)"/>
<path d="" fill="#44440F" transform="translate(0,0)"/>
<path d="" fill="#43430E" transform="translate(0,0)"/>
<path d="" fill="#434210" transform="translate(0,0)"/>
<path d="" fill="#43420F" transform="translate(0,0)"/>
<path d="" fill="#43430F" transform="translate(0,0)"/>
<path d="" fill="#44430F" transform="translate(0,0)"/>
<path d="" fill="#444310" transform="translate(0,0)"/>
<path d="" fill="#434310" transform="translate(0,0)"/>
<path d="" fill="#434410" transform="translate(0,0)"/>
<path d="" fill="#44430F" transform="translate(0,0)"/>
<path d="" fill="#444310" transform="translate(0,0)"/>
<path d="" fill="#434211" transform="translate(0,0)"/>
<path d="" fill="#434410" transform="translate(0,0)"/>
<path d="" fill="#44430F" transform="translate(0,0)"/>
<path d="" fill="#44430F" transform="translate(0,0)"/>
<path d="" fill="#464411" transform="translate(0,0)"/>
<path d="" fill="#44420D" transform="translate(0,0)"/>
<path d="" fill="#434210" transform="translate(0,0)"/>
<path d="" fill="#444310" transform="translate(0,0)"/>
<path d="" fill="#444210" transform="translate(0,0)"/>
<path d="" fill="#44430F" transform="translate(0,0)"/>
<path d="" fill="#42460E" transform="translate(0,0)"/>
<path d="" fill="#444413" transform="translate(0,0)"/>
<path d="" fill="#454210" transform="translate(0,0)"/>
<path d="" fill="#43420F" transform="translate(0,0)"/>
<path d="" fill="#42430F" transform="translate(0,0)"/>
<path d="" fill="#444310" transform="translate(0,0)"/>
<path d="" fill="#46480D" transform="translate(0,0)"/>
<path d="" fill="#444410" transform="translate(0,0)"/>
<path d="M0 0 C2 1 2 1 2 1 Z " fill="#464410" transform="translate(525,248)"/>
<path d="M0 0 C2 1 2 1 2 1 Z " fill="#44420F" transform="translate(516,242)"/>
<path d="M0 0 C2 1 2 1 2 1 Z " fill="#43410E" transform="translate(514,241)"/>
<path d="M0 0 C2 1 2 1 2 1 Z " fill="#44420F" transform="translate(512,240)"/>
<path d="M0 0 C2 1 2 1 2 1 Z " fill="#43430F" transform="translate(510,239)"/>
<path d="M0 0 C2 1 2 1 2 1 Z " fill="#434411" transform="translate(508,238)"/>
<path d="" fill="#434310" transform="translate(0,0)"/>
<path d="M0 0 C2 1 2 1 2 1 Z " fill="#444410" transform="translate(549,229)"/>
<path d="M0 0 C2 1 2 1 2 1 Z " fill="#444211" transform="translate(431,229)"/>
<path d="M0 0 C2 1 2 1 2 1 Z " fill="#444311" transform="translate(436,227)"/>
<path d="M0 0 C2 1 2 1 2 1 Z " fill="#454212" transform="translate(439,226)"/>
<path d="M0 0 C2 1 2 1 2 1 Z " fill="#434411" transform="translate(451,222)"/>
<path d="M0 0 C2 1 2 1 2 1 Z " fill="#434212" transform="translate(533,221)"/>
<path d="M0 0 C2 1 2 1 2 1 Z " fill="#43430F" transform="translate(454,221)"/>
<path d="M0 0 C2 1 2 1 2 1 Z " fill="#43430F" transform="translate(530,220)"/>
<path d="M0 0 C2 1 2 1 2 1 Z " fill="#434210" transform="translate(458,220)"/>
<path d="M0 0 C2 1 2 1 2 1 Z " fill="#464413" transform="translate(527,219)"/>
<path d="M0 0 C2 1 2 1 2 1 Z " fill="#454311" transform="translate(462,219)"/>
<path d="M0 0 C2 1 2 1 2 1 Z " fill="#444311" transform="translate(524,218)"/>
<path d="M0 0 C2 1 2 1 2 1 Z " fill="#434211" transform="translate(521,217)"/>
<path d="M0 0 C2 1 2 1 2 1 Z " fill="#44420F" transform="translate(500,214)"/>
<path d="" fill="#44430F" transform="translate(0,0)"/>
<path d="" fill="#474610" transform="translate(0,0)"/>
<path d="" fill="#454311" transform="translate(0,0)"/>
<path d="" fill="#494712" transform="translate(0,0)"/>
<path d="" fill="#434310" transform="translate(0,0)"/>
<path d="" fill="#444412" transform="translate(0,0)"/>
<path d="" fill="#474511" transform="translate(0,0)"/>
<path d="" fill="#434210" transform="translate(0,0)"/>
<path d="" fill="#464511" transform="translate(0,0)"/>
<path d="" fill="#424011" transform="translate(0,0)"/>
<path d="" fill="#43430F" transform="translate(0,0)"/>
<path d="" fill="#454515" transform="translate(0,0)"/>
<path d="" fill="#47470F" transform="translate(0,0)"/>
<path d="" fill="#43430E" transform="translate(0,0)"/>
<path d="" fill="#4C4A11" transform="translate(0,0)"/>
<path d="" fill="#474612" transform="translate(0,0)"/>
<path d="" fill="#41400E" transform="translate(0,0)"/>
<path d="" fill="#464411" transform="translate(0,0)"/>
<path d="" fill="#46430F" transform="translate(0,0)"/>
<path d="" fill="#4B4713" transform="translate(0,0)"/>
<path d="" fill="#45440F" transform="translate(0,0)"/>
<path d="" fill="#434813" transform="translate(0,0)"/>
<path d="" fill="#43410E" transform="translate(0,0)"/>
<path d="" fill="#484613" transform="translate(0,0)"/>
<path d="" fill="#444B16" transform="translate(0,0)"/>
<path d="" fill="#474611" transform="translate(0,0)"/>
<path d="" fill="#474510" transform="translate(0,0)"/>
<path d="" fill="#474415" transform="translate(0,0)"/>
<path d="" fill="#42430E" transform="translate(0,0)"/>
<path d="" fill="#434311" transform="translate(0,0)"/>
<path d="" fill="#474610" transform="translate(0,0)"/>
<path d="" fill="#474510" transform="translate(0,0)"/>
<path d="" fill="#413D12" transform="translate(0,0)"/>
<path d="" fill="#454410" transform="translate(0,0)"/>
<path d="" fill="#44450F" transform="translate(0,0)"/>
<path d="" fill="#434310" transform="translate(0,0)"/>
<path d="" fill="#434511" transform="translate(0,0)"/>
<path d="" fill="#444310" transform="translate(0,0)"/>
<path d="" fill="#434213" transform="translate(0,0)"/>
<path d="" fill="#434212" transform="translate(0,0)"/>
<path d="" fill="#44430F" transform="translate(0,0)"/>
<path d="" fill="#464414" transform="translate(0,0)"/>
<path d="" fill="#49471B" transform="translate(0,0)"/>
<path d="" fill="#464414" transform="translate(0,0)"/>
<path d="" fill="#404A1A" transform="translate(0,0)"/>
<path d="" fill="#474414" transform="translate(0,0)"/>
<path d="" fill="#384A19" transform="translate(0,0)"/>
<path d="" fill="#464512" transform="translate(0,0)"/>
<path d="" fill="#3E4718" transform="translate(0,0)"/>
<path d="" fill="#44430F" transform="translate(0,0)"/>
<path d="" fill="#3E4718" transform="translate(0,0)"/>
<path d="" fill="#43420F" transform="translate(0,0)"/>
<path d="" fill="#3E4718" transform="translate(0,0)"/>
<path d="" fill="#43430F" transform="translate(0,0)"/>
<path d="" fill="#3E4718" transform="translate(0,0)"/>
<path d="" fill="#434213" transform="translate(0,0)"/>
<path d="" fill="#454310" transform="translate(0,0)"/>
<path d="" fill="#473D0D" transform="translate(0,0)"/>
<path d="" fill="#474610" transform="translate(0,0)"/>
<path d="" fill="#454010" transform="translate(0,0)"/>
<path d="" fill="#444211" transform="translate(0,0)"/>
<path d="" fill="#434011" transform="translate(0,0)"/>
<path d="" fill="#413F11" transform="translate(0,0)"/>
<path d="" fill="#454312" transform="translate(0,0)"/>
<path d="" fill="#464511" transform="translate(0,0)"/>
<path d="" fill="#454413" transform="translate(0,0)"/>
<path d="" fill="#454813" transform="translate(0,0)"/>
<path d="" fill="#454411" transform="translate(0,0)"/>
<path d="" fill="#424915" transform="translate(0,0)"/>
<path d="" fill="#454411" transform="translate(0,0)"/>
<path d="" fill="#444313" transform="translate(0,0)"/>
<path d="" fill="#444312" transform="translate(0,0)"/>
<path d="" fill="#444012" transform="translate(0,0)"/>
<path d="" fill="#454410" transform="translate(0,0)"/>
<path d="" fill="#464317" transform="translate(0,0)"/>
<path d="" fill="#45440F" transform="translate(0,0)"/>
<path d="" fill="#42420F" transform="translate(0,0)"/>
<path d="" fill="#42420E" transform="translate(0,0)"/>
<path d="" fill="#43430E" transform="translate(0,0)"/>
<path d="" fill="#44430F" transform="translate(0,0)"/>
<path d="" fill="#454411" transform="translate(0,0)"/>
<path d="" fill="#474612" transform="translate(0,0)"/>
<path d="" fill="#454212" transform="translate(0,0)"/>
<path d="" fill="#48470F" transform="translate(0,0)"/>
<path d="" fill="#454412" transform="translate(0,0)"/>
<path d="" fill="#444012" transform="translate(0,0)"/>
<path d="" fill="#44440F" transform="translate(0,0)"/>
<path d="" fill="#44440F" transform="translate(0,0)"/>
<path d="" fill="#434211" transform="translate(0,0)"/>
<path d="" fill="#444310" transform="translate(0,0)"/>
<path d="" fill="#434212" transform="translate(0,0)"/>
<path d="" fill="#444410" transform="translate(0,0)"/>
<path d="" fill="#454310" transform="translate(0,0)"/>
<path d="" fill="#43430F" transform="translate(0,0)"/>
<path d="" fill="#474713" transform="translate(0,0)"/>
<path d="" fill="#464612" transform="translate(0,0)"/>
<path d="" fill="#484714" transform="translate(0,0)"/>
<path d="" fill="#454511" transform="translate(0,0)"/>
<path d="" fill="#43420E" transform="translate(0,0)"/>
<path d="" fill="#474610" transform="translate(0,0)"/>
<path d="" fill="#454815" transform="translate(0,0)"/>
<path d="" fill="#33340D" transform="translate(0,0)"/>
<path d="" fill="#44430E" transform="translate(0,0)"/>
<path d="" fill="#444312" transform="translate(0,0)"/>
<path d="" fill="#424817" transform="translate(0,0)"/>
<path d="" fill="#44420F" transform="translate(0,0)"/>
<path d="" fill="#454310" transform="translate(0,0)"/>
<path d="" fill="#434112" transform="translate(0,0)"/>
<path d="" fill="#474612" transform="translate(0,0)"/>
<path d="" fill="#454510" transform="translate(0,0)"/>
<path d="" fill="#464511" transform="translate(0,0)"/>
<path d="" fill="#000000" transform="translate(0,0)"/>
<path d="" fill="#44440F" transform="translate(0,0)"/>
<path d="" fill="#474614" transform="translate(0,0)"/>
<path d="" fill="#252408" transform="translate(0,0)"/>
<path d="" fill="#43440F" transform="translate(0,0)"/>
<path d="" fill="#43430F" transform="translate(0,0)"/>
<path d="" fill="#434310" transform="translate(0,0)"/>
<path d="" fill="#44430F" transform="translate(0,0)"/>
<path d="" fill="#424311" transform="translate(0,0)"/>
<path d="" fill="#424211" transform="translate(0,0)"/>
<path d="" fill="#434210" transform="translate(0,0)"/>
<path d="" fill="#434212" transform="translate(0,0)"/>
<path d="" fill="#434310" transform="translate(0,0)"/>
<path d="" fill="#444310" transform="translate(0,0)"/>
<path d="" fill="#434111" transform="translate(0,0)"/>
<path d="" fill="#444310" transform="translate(0,0)"/>
<path d="" fill="#454311" transform="translate(0,0)"/>
<path d="" fill="#474511" transform="translate(0,0)"/>
<path d="" fill="#474610" transform="translate(0,0)"/>
<path d="" fill="#444412" transform="translate(0,0)"/>
<path d="" fill="#444311" transform="translate(0,0)"/>
<path d="" fill="#454211" transform="translate(0,0)"/>
<path d="" fill="#444311" transform="translate(0,0)"/>
<path d="" fill="#454313" transform="translate(0,0)"/>
<path d="" fill="#484712" transform="translate(0,0)"/>
<path d="" fill="#464412" transform="translate(0,0)"/>
<path d="" fill="#454510" transform="translate(0,0)"/>
<path d="" fill="#454410" transform="translate(0,0)"/>
<path d="" fill="#464512" transform="translate(0,0)"/>
<path d="" fill="#42420F" transform="translate(0,0)"/>
<path d="" fill="#444310" transform="translate(0,0)"/>
<path d="" fill="#424212" transform="translate(0,0)"/>
<path d="" fill="#454411" transform="translate(0,0)"/>
<path d="" fill="#000000" transform="translate(0,0)"/>
<path d="" fill="#000000" transform="translate(0,0)"/>
<path d="" fill="#44430F" transform="translate(0,0)"/>
<path d="" fill="#464511" transform="translate(0,0)"/>
<path d="" fill="#434210" transform="translate(0,0)"/>
<path d="" fill="#464610" transform="translate(0,0)"/>
<path d="" fill="#464611" transform="translate(0,0)"/>
<path d="" fill="#464511" transform="translate(0,0)"/>
<path d="" fill="#474511" transform="translate(0,0)"/>
<path d="" fill="#454410" transform="translate(0,0)"/>
<path d="" fill="#000000" transform="translate(0,0)"/>
<path d="" fill="#000000" transform="translate(0,0)"/>
<path d="" fill="#000000" transform="translate(0,0)"/>
<path d="" fill="#000000" transform="translate(0,0)"/>
<path d="" fill="#444311" transform="translate(0,0)"/>
<path d="" fill="#464611" transform="translate(0,0)"/>
<path d="" fill="#444210" transform="translate(0,0)"/>
<path d="" fill="#444310" transform="translate(0,0)"/>
<path d="" fill="#454310" transform="translate(0,0)"/>
<path d="" fill="#434513" transform="translate(0,0)"/>
<path d="" fill="#444211" transform="translate(0,0)"/>
<path d="" fill="#434211" transform="translate(0,0)"/>
<path d="" fill="#434111" transform="translate(0,0)"/>
<path d="" fill="#45420E" transform="translate(0,0)"/>
<path d="" fill="#444612" transform="translate(0,0)"/>
<path d="" fill="#454511" transform="translate(0,0)"/>
<path d="" fill="#464510" transform="translate(0,0)"/>
<path d="" fill="#45450F" transform="translate(0,0)"/>
<path d="" fill="#43430F" transform="translate(0,0)"/>
<path d="" fill="#464511" transform="translate(0,0)"/>
<path d="" fill="#43420F" transform="translate(0,0)"/>
<path d="" fill="#434310" transform="translate(0,0)"/>
<path d="" fill="#454310" transform="translate(0,0)"/>
<path d="" fill="#444310" transform="translate(0,0)"/>
<path d="" fill="#48450F" transform="translate(0,0)"/>
<path d="" fill="#454313" transform="translate(0,0)"/>
<path d="" fill="#474512" transform="translate(0,0)"/>
<path d="" fill="#444410" transform="translate(0,0)"/>
<path d="" fill="#454513" transform="translate(0,0)"/>
<path d="" fill="#454412" transform="translate(0,0)"/>
<path d="" fill="#42420F" transform="translate(0,0)"/>
<path d="" fill="#444310" transform="translate(0,0)"/>
<path d="" fill="#434310" transform="translate(0,0)"/>
<path d="" fill="#464511" transform="translate(0,0)"/>
<path d="" fill="#434410" transform="translate(0,0)"/>
<path d="" fill="#42430F" transform="translate(0,0)"/>
<path d="" fill="#434311" transform="translate(0,0)"/>
<path d="" fill="#454510" transform="translate(0,0)"/>
<path d="" fill="#454411" transform="translate(0,0)"/>
<path d="" fill="#424111" transform="translate(0,0)"/>
<path d="" fill="#454411" transform="translate(0,0)"/>
<path d="" fill="#454311" transform="translate(0,0)"/>
<path d="" fill="#434210" transform="translate(0,0)"/>
<path d="" fill="#42420D" transform="translate(0,0)"/>
<path d="" fill="#444116" transform="translate(0,0)"/>
<path d="" fill="#434210" transform="translate(0,0)"/>
<path d="" fill="#454410" transform="translate(0,0)"/>
<path d="" fill="#4A4416" transform="translate(0,0)"/>
<path d="" fill="#444113" transform="translate(0,0)"/>
<path d="" fill="#464817" transform="translate(0,0)"/>
<path d="" fill="#464412" transform="translate(0,0)"/>
<path d="" fill="#414715" transform="translate(0,0)"/>
<path d="" fill="#434112" transform="translate(0,0)"/>
<path d="" fill="#424614" transform="translate(0,0)"/>
<path d="" fill="#46440E" transform="translate(0,0)"/>
<path d="" fill="#464413" transform="translate(0,0)"/>
<path d="" fill="#434714" transform="translate(0,0)"/>
<path d="" fill="#434010" transform="translate(0,0)"/>
<path d="" fill="#424714" transform="translate(0,0)"/>
<path d="" fill="#454510" transform="translate(0,0)"/>
<path d="" fill="#434113" transform="translate(0,0)"/>
<path d="" fill="#424210" transform="translate(0,0)"/>
<path d="" fill="#464512" transform="translate(0,0)"/>
<path d="" fill="#444311" transform="translate(0,0)"/>
<path d="" fill="#44420F" transform="translate(0,0)"/>
</svg>
