<svg xmlns="http://www.w3.org/2000/svg" width="724" height="616" viewBox="0 0 724 616" version="1.1"><path d="M 150.022 542.696 C 147.723 549.738, 145.667 556.063, 145.452 556.750 C 144.711 559.128, 148.683 557.991, 149.818 555.500 C 150.808 553.327, 151.600 553, 155.870 553 C 160.277 553, 160.848 553.258, 161.411 555.500 C 161.824 557.149, 162.736 558, 164.086 558 C 165.752 558, 166.003 557.580, 165.431 555.750 C 158.768 534.437, 157.281 530.485, 155.816 530.203 C 154.559 529.961, 153.276 532.728, 150.022 542.696 M 170 544 L 170 558 177.048 558 C 183.291 558, 184.361 557.713, 186.426 555.486 C 189.979 551.651, 190.993 544.118, 188.948 536.752 C 187.600 531.898, 183.973 530, 176.050 530 L 170 530 170 544 M 198.593 542.250 C 196.478 548.987, 194.527 555.288, 194.257 556.250 C 193.907 557.499, 194.342 558, 195.775 558 C 197.083 558, 198.002 557.128, 198.411 555.500 C 198.975 553.250, 199.538 553, 204.044 553 C 208.463 553, 209.161 553.293, 210 555.500 C 210.567 556.992, 211.740 558, 212.909 558 C 214.756 558, 214.671 557.418, 211.410 547.750 C 209.509 542.112, 207.496 535.813, 206.938 533.750 C 206.259 531.240, 205.347 530, 204.181 530 C 202.829 530, 201.578 532.742, 198.593 542.250 M 218 544 C 218 557.333, 218.095 558, 220 558 C 221.778 558, 222 557.333, 222 552 L 222 546 227.365 546 C 235.137 546, 238.206 543.401, 237.800 537.162 C 237.418 531.295, 235.206 530.035, 225.250 530.015 L 218 530 218 544 M 243 532 C 243 533.667, 243.667 534, 247 534 L 251 534 251 546 C 251 557.333, 251.111 558, 253 558 C 254.888 558, 255 557.333, 255 546.060 L 255 534.121 258.742 533.810 C 261.357 533.593, 262.583 532.973, 262.815 531.750 C 263.113 530.177, 262.127 530, 253.073 530 C 243.667 530, 243 530.132, 243 532 M 268 532 C 268 533.619, 268.667 534, 271.500 534 L 275 534 275 544.500 L 275 555 271.500 555 C 269.056 555, 268 555.452, 268 556.500 C 268 557.716, 269.611 558, 276.500 558 C 283.389 558, 285 557.716, 285 556.500 C 285 555.500, 284 555, 282 555 L 279 555 279 544.500 L 279 534 282 534 C 284.333 534, 285 533.556, 285 532 C 285 530.157, 284.333 530, 276.500 530 C 268.667 530, 268 530.157, 268 532 M 291 530.986 C 291 531.609, 292.890 538.167, 295.201 545.560 C 300.733 563.260, 301.424 563.287, 306.921 546.013 C 309.193 538.870, 311.314 532.345, 311.633 531.513 C 312.037 530.462, 311.581 530, 310.139 530 C 308.383 530, 307.529 531.654, 304.586 540.750 C 302.129 548.344, 300.925 550.913, 300.484 549.500 C 295.536 533.652, 294.260 530.481, 292.706 530.182 C 291.768 530.001, 291 530.363, 291 530.986 M 315 544 L 315 558 325 558 C 333.222 558, 335 557.733, 335 556.500 C 335 555.292, 333.444 555, 327 555 L 319 555 319 549.500 L 319 544 326 544 C 331.556 544, 333 543.690, 333 542.500 C 333 541.310, 331.556 541, 326 541 L 319 541 319 537.500 L 319 534 327 534 C 334.333 534, 335 533.833, 335 532 C 335 530.133, 334.333 530, 325 530 L 315 530 315 544 M 363.316 535.250 C 363.641 538.138, 364.216 544.460, 364.595 549.301 C 365.233 557.463, 365.434 558.080, 367.362 557.801 C 368.987 557.566, 369.890 556.002, 371.492 550.652 L 373.543 543.805 375.829 550.902 C 377.546 556.233, 378.565 558, 379.920 558 C 381.879 558, 382.230 556.152, 383.599 538.649 C 384.252 530.307, 384.182 529.818, 382.396 530.161 C 380.803 530.466, 380.386 531.782, 379.786 538.393 C 379.393 542.721, 378.899 546.434, 378.688 546.645 C 378.477 546.856, 377.506 544.078, 376.530 540.472 C 375.507 536.693, 374.281 534.073, 373.637 534.288 C 373.022 534.493, 371.571 537.774, 370.412 541.580 L 368.306 548.500 367.547 539.250 C 366.859 530.868, 366.597 530, 364.756 530 C 362.897 530, 362.775 530.446, 363.316 535.250 M 390.924 532.581 C 388.762 534.882, 388.500 536.055, 388.500 543.429 C 388.500 552.529, 389.782 556.124, 393.657 557.890 C 402.722 562.020, 409.575 552.992, 407.563 539.570 C 406.534 532.710, 403.855 530, 398.102 530 C 394.285 530, 392.871 530.508, 390.924 532.581 M 412 544 C 412 557.333, 412.095 558, 414 558 C 415.778 558, 416 557.333, 416 552 C 416 546.119, 416.054 546, 418.750 546.011 C 421.027 546.020, 422.138 547.053, 425.207 552.011 C 427.779 556.166, 429.539 558, 430.957 558 C 433.639 558, 433.593 557.802, 429.500 551.724 C 425.661 546.023, 425.333 545, 427.345 545 C 429.685 545, 432.001 541.468, 431.985 537.921 C 431.957 531.746, 429.109 530, 419.066 530 L 412 530 412 544 M 436 544 C 436 557.333, 436.095 558, 438 558 C 439.683 558, 440.004 557.326, 440.022 553.750 C 440.036 551.185, 440.775 548.551, 441.886 547.105 L 443.728 544.709 447.943 550.916 C 450.262 554.330, 452.783 557.363, 453.546 557.656 C 457.103 559.021, 456.667 556.914, 452.032 550.336 C 449.264 546.408, 447 542.874, 447 542.483 C 447 542.092, 449.295 539.123, 452.099 535.886 C 456.790 530.471, 457.010 529.998, 454.849 529.970 C 453.206 529.950, 450.628 531.980, 446.277 536.720 L 440.054 543.500 440.027 536.750 C 440.003 530.676, 439.800 530, 438 530 C 436.095 530, 436 530.667, 436 544 M 461 544.500 C 461 556.722, 461.236 559, 462.500 559 C 463.700 559, 464 557.500, 464 551.500 L 464 544 471 544 C 476.556 544, 478 543.690, 478 542.500 C 478 541.310, 476.556 541, 471 541 L 464 541 464 537.540 L 464 534.081 472.239 533.790 C 479.153 533.547, 480.532 533.219, 480.812 531.750 C 481.113 530.177, 480.128 530, 471.073 530 L 461 530 461 544.500 M 485 544 L 485 558 495 558 C 503.222 558, 505 557.733, 505 556.500 C 505 555.292, 503.444 555, 497 555 L 489 555 489 542.500 C 489 530.667, 488.893 530, 487 530 C 485.095 530, 485 530.667, 485 544 M 512.099 532.601 C 509.493 535.915, 508.580 540.807, 509.352 547.327 C 510.328 555.567, 515.205 560.169, 521.332 558.632 C 527.155 557.170, 529.787 550.543, 528.766 539.912 C 528.093 532.915, 525.191 530, 518.898 530 C 514.970 530, 513.790 530.451, 512.099 532.601 M 533 532.618 C 533 534.139, 533.518 540.494, 534.152 546.741 C 535.212 557.202, 535.460 558.076, 537.294 557.800 C 538.813 557.571, 539.774 555.856, 541.346 550.569 L 543.406 543.637 545.482 550.569 C 547.107 555.993, 548.010 557.565, 549.638 557.801 C 551.566 558.080, 551.767 557.463, 552.405 549.301 C 552.784 544.460, 553.359 538.138, 553.684 535.250 C 554.225 530.446, 554.103 530, 552.244 530 C 550.402 530, 550.144 530.858, 549.484 539.198 L 548.756 548.397 546.612 541.526 C 545.432 537.747, 543.967 534.489, 543.356 534.285 C 542.721 534.074, 541.485 536.723, 540.470 540.472 C 539.494 544.078, 538.523 546.856, 538.312 546.645 C 538.101 546.434, 537.607 542.721, 537.214 538.393 C 536.637 532.037, 536.163 530.460, 534.750 530.189 C 533.424 529.935, 533 530.524, 533 532.618 M 394 535 C 391.392 537.608, 391.127 549.308, 393.596 552.834 C 395.790 555.966, 400.930 555.498, 402.767 552 C 404.795 548.138, 403.947 536.166, 401.520 534.391 C 398.867 532.451, 396.344 532.656, 394 535 M 515.480 534.391 C 513.053 536.166, 512.205 548.138, 514.233 552 C 516.070 555.498, 521.210 555.966, 523.404 552.834 C 525.873 549.308, 525.608 537.608, 523 535 C 520.656 532.656, 518.133 532.451, 515.480 534.391 M 174 544.500 L 174 555 177.545 555 C 183.228 555, 186 551.481, 186 544.268 C 186 536.344, 184.275 534, 178.443 534 L 174 534 174 544.500 M 222 538 L 222 542 227.465 542 C 231.906 542, 233.130 541.625, 234 540 C 234.760 538.579, 234.760 537.421, 234 536 C 233.130 534.375, 231.906 534, 227.465 534 L 222 534 222 538 M 416 537.950 L 416 542 420.750 541.985 C 426.785 541.965, 428.244 541.019, 427.830 537.391 C 427.513 534.618, 427.266 534.488, 421.750 534.200 L 416 533.900 416 537.950 M 153.683 543.338 C 152.757 546.274, 152 548.974, 152 549.338 C 152 549.702, 153.770 550, 155.934 550 L 159.869 550 157.843 544 C 156.728 540.700, 155.715 538, 155.591 538 C 155.467 538, 154.608 540.402, 153.683 543.338 M 203.598 539 C 203.279 539.825, 202.382 542.638, 201.607 545.250 L 200.196 550 204.098 550 C 206.244 550, 207.993 549.888, 207.985 549.750 C 207.977 549.612, 207.117 546.800, 206.074 543.500 C 204.940 539.911, 203.945 538.103, 203.598 539 M 289.571 581.571 C 287.193 583.950, 287.465 592.465, 290 595 C 292.407 597.407, 293.840 597.501, 296.777 595.443 C 299.336 593.651, 299.683 592, 297.500 592 C 296.675 592, 296 592.450, 296 593 C 296 593.550, 294.884 594, 293.519 594 C 291.740 594, 290.869 593.327, 290.441 591.621 C 288.799 585.077, 292.123 579.991, 295.842 583.357 C 298.126 585.424, 299.921 583.815, 297.964 581.456 C 296.366 579.531, 291.545 579.598, 289.571 581.571 M 303.245 581.250 C 298.546 587.124, 302.675 598.508, 308.799 596.564 C 312.757 595.308, 314.393 586.434, 311.443 582.223 C 309.714 579.754, 304.899 579.183, 303.245 581.250 M 315 588 C 315 596.870, 316.721 599.023, 317.198 590.750 L 317.500 585.500 320.741 590.750 C 322.523 593.638, 324.436 596, 324.991 596 C 325.586 596, 326 592.716, 326 588 C 326 583.333, 325.583 580, 325 580 C 324.450 580, 324 582.573, 324 585.719 L 324 591.437 320.423 585.719 C 318.456 582.573, 316.431 580, 315.923 580 C 315.415 580, 315 583.600, 315 588 M 330.521 581.621 C 328.104 584.039, 329.058 586.253, 333.513 588.565 C 335.706 589.703, 337.500 591.279, 337.500 592.067 C 337.500 593.919, 333.325 594.515, 331.421 592.934 C 330.613 592.264, 329.682 591.985, 329.352 592.314 C 328.159 593.508, 329.899 595.758, 332.525 596.417 C 336.171 597.332, 340 594.761, 340 591.397 C 340 589.337, 339.213 588.530, 335.959 587.252 C 330.545 585.125, 330.858 582.361, 336.462 582.815 C 339.896 583.094, 340.201 582.947, 339.054 581.565 C 337.362 579.527, 332.585 579.558, 330.521 581.621 M 342 586.860 C 342 592.987, 342.284 594.086, 344.223 595.443 C 347.214 597.538, 349.597 597.403, 352 595 C 353.590 593.410, 354 591.667, 354 586.500 C 354 581.480, 353.669 580, 352.546 580 C 351.446 580, 351.019 581.646, 350.796 586.750 C 350.511 593.256, 350.402 593.511, 347.797 593.812 C 345.121 594.121, 345.091 594.056, 344.797 587.392 C 344.609 583.120, 344.043 580.508, 343.250 580.246 C 342.329 579.942, 342 581.685, 342 586.860 M 356 588 L 356 596 361.500 596 C 364.525 596, 367 595.550, 367 595 C 367 594.450, 364.975 594, 362.500 594 L 358 594 358 587 C 358 583, 357.571 580, 357 580 C 356.417 580, 356 583.333, 356 588 M 370 581.500 C 370 582.333, 370.889 583, 372 583 C 373.795 583, 374 583.667, 374 589.500 C 374 594.611, 374.321 596, 375.500 596 C 376.677 596, 377 594.624, 377 589.617 C 377 584.074, 377.263 583.164, 379 582.710 C 383.084 581.642, 380.963 580, 375.500 580 C 371.278 580, 370 580.348, 370 581.500 M 387.693 580.750 C 387.459 581.163, 386.261 584.566, 385.031 588.314 C 382.828 595.025, 382.895 597.505, 385.217 595.183 C 386.653 593.747, 392 593.602, 392 595 C 392 595.550, 392.723 596, 393.607 596 C 394.491 596, 395.007 595.438, 394.753 594.750 C 394.500 594.063, 393.290 590.462, 392.065 586.750 C 390.010 580.526, 388.778 578.835, 387.693 580.750 M 397 588 C 397 596.870, 398.721 599.023, 399.198 590.750 L 399.500 585.500 402.741 590.750 C 404.523 593.638, 406.436 596, 406.991 596 C 407.586 596, 408 592.716, 408 588 C 408 583.333, 407.583 580, 407 580 C 406.450 580, 406 582.573, 406 585.719 L 406 591.437 402.423 585.719 C 400.456 582.573, 398.431 580, 397.923 580 C 397.415 580, 397 583.600, 397 588 M 412.571 581.571 C 410.193 583.950, 410.465 592.465, 413 595 C 415.407 597.407, 416.840 597.501, 419.777 595.443 C 422.336 593.651, 422.683 592, 420.500 592 C 419.675 592, 419 592.450, 419 593 C 419 593.550, 417.884 594, 416.519 594 C 414.740 594, 413.869 593.327, 413.441 591.621 C 411.799 585.077, 415.123 579.991, 418.842 583.357 C 421.126 585.424, 422.921 583.815, 420.964 581.456 C 419.366 579.531, 414.545 579.598, 412.571 581.571 M 424 580.533 C 424 580.827, 425.125 583.287, 426.500 586 C 427.875 588.713, 429 592.298, 429 593.967 C 429 595.635, 429.450 597, 430 597 C 430.550 597, 431 595.628, 431 593.950 C 431 592.273, 431.685 589.576, 432.522 587.957 C 433.359 586.338, 434.473 583.886, 434.997 582.507 C 436.570 578.371, 433.640 579.436, 431.584 583.747 L 429.797 587.494 427.875 583.747 C 426.248 580.576, 424 578.711, 424 580.533 M 305.097 583.383 C 304.422 584.196, 304.017 586.783, 304.189 589.176 C 304.467 593.039, 304.767 593.500, 307 593.500 C 309.363 593.500, 309.500 593.199, 309.500 588.014 C 309.500 583.791, 309.133 582.457, 307.908 582.221 C 307.032 582.052, 305.767 582.575, 305.097 583.383 M 388 586.859 C 388 587.397, 387.727 588.548, 387.393 589.418 C 386.963 590.538, 387.374 591, 388.799 591 C 390.326 591, 390.685 590.512, 390.286 588.984 C 389.723 586.831, 388 585.229, 388 586.859" stroke="none" fill="#040404" fill-rule="evenodd"/><path d="M 383.200 73.200 C 379.932 76.468, 383.359 80.457, 395.500 87.520 C 399.900 90.080, 402.375 91.944, 401 91.663 C 384.478 88.282, 346.972 87.268, 332 89.798 C 295.126 96.029, 264.822 108.948, 237.080 130.262 C 226.416 138.456, 224.985 140.162, 226.607 142.750 C 228.709 146.103, 231.677 145.343, 238.862 139.610 C 282.834 104.525, 337.383 90.319, 394.471 99.085 L 402.442 100.309 392.869 102.442 C 381.924 104.881, 377.725 107.104, 378.189 110.211 C 378.738 113.891, 381.394 114.657, 386.721 112.671 C 389.349 111.692, 396.675 110.465, 403 109.945 C 419.123 108.620, 420.644 108.268, 422.957 105.328 C 427.206 99.926, 425.043 95.606, 414.598 88.632 C 410.144 85.657, 404.090 82.017, 401.144 80.541 C 398.198 79.066, 393.968 76.540, 391.744 74.929 C 387.385 71.772, 385.092 71.308, 383.200 73.200 M 463.200 118.200 C 461.488 119.912, 461.717 122.435, 463.750 124.269 C 464.712 125.138, 468.907 128.071, 473.072 130.788 C 483.959 137.890, 500.234 152.229, 509.500 162.882 C 525.777 181.596, 540.527 206.926, 548.292 229.500 C 552.133 240.668, 556.530 258.631, 557.471 267 L 558.089 272.500 554.094 265.106 C 547.440 252.792, 542.747 249.445, 539.348 254.591 C 538.104 256.475, 538.276 257.071, 541.083 260.591 C 545.134 265.673, 547.330 270.045, 551.189 280.710 C 552.927 285.511, 555.374 290.465, 556.629 291.719 C 559.304 294.395, 564.477 294.755, 567.709 292.491 C 570.530 290.516, 573.461 282.499, 576.013 269.779 C 577.147 264.125, 578.766 257.371, 579.611 254.770 C 580.456 252.168, 580.872 249.173, 580.536 248.112 C 579.179 243.837, 574.107 244.808, 572.177 249.712 C 570.586 253.754, 568 264.429, 568 266.953 C 568 268.144, 567.550 268.840, 567 268.500 C 566.450 268.160, 565.993 266.671, 565.984 265.191 C 565.958 260.672, 562.187 244.120, 558.511 232.389 C 544.533 187.782, 516.241 149.688, 477.725 123.617 C 467.856 116.936, 465.385 116.015, 463.200 118.200 M 301 140.968 C 296.325 141.945, 288.675 144.061, 284 145.670 C 276.862 148.127, 275.555 148.908, 275.845 150.548 C 276.035 151.621, 276.262 152.577, 276.349 152.671 C 276.437 152.765, 280.332 151.723, 285.004 150.355 C 300.806 145.728, 318.984 147.284, 331 154.292 C 336.584 157.549, 349.844 169.848, 351.708 173.500 C 352.537 175.124, 350.521 180.765, 340.987 203.500 C 334.529 218.900, 314.517 266.825, 296.516 310 C 278.515 353.175, 262.753 390.300, 261.490 392.500 C 258.202 398.223, 251.060 405.118, 245.587 407.850 C 242.998 409.143, 238.206 410.443, 234.940 410.739 C 230.007 411.186, 229 411.593, 229 413.139 C 229 414.920, 230.589 415, 266.073 415 C 300.756 415, 303.125 414.888, 302.812 413.261 C 302.572 412.014, 301.082 411.322, 297.552 410.817 C 289.023 409.597, 283.491 403.204, 284.297 395.500 C 284.527 393.300, 290.568 376.425, 297.721 358 L 310.726 324.500 360.113 324.252 L 409.500 324.003 416.385 344.252 C 436.237 402.632, 448.112 427.449, 467.703 451.500 L 472.590 457.500 465.545 461.856 C 459.126 465.824, 443.676 474, 442.596 474 C 442.350 474, 444.762 471.507, 447.956 468.460 C 455.007 461.735, 459.019 454.846, 457.396 452.253 C 456.792 451.289, 455.163 450.363, 453.776 450.196 C 451.719 449.948, 450.785 450.692, 448.711 454.230 C 445.907 459.014, 439.517 465.312, 430.826 471.854 C 424.018 476.979, 422.367 480.550, 424.474 485.592 C 426.507 490.457, 429.525 491.313, 442 490.561 C 447.775 490.213, 456.864 489.668, 462.198 489.350 C 469.955 488.887, 472.239 488.393, 473.607 486.882 C 475.040 485.298, 475.123 484.565, 474.116 482.356 L 472.916 479.721 462.208 480.260 C 456.319 480.556, 450.600 481.107, 449.500 481.483 C 448.400 481.859, 452 479.746, 457.500 476.787 C 463 473.828, 470.149 469.707, 473.386 467.629 L 479.272 463.851 483.386 467.824 C 495.449 479.474, 512.306 488.822, 527.238 492.143 C 534.744 493.813, 538.490 494.092, 547 493.616 C 552.775 493.292, 559.300 492.545, 561.500 491.955 C 575.076 488.313, 576 487.939, 576 486.080 C 576 484.348, 575.271 484.252, 565.750 484.736 C 541.894 485.946, 520.123 476.329, 502.898 456.969 L 497.087 450.438 508.382 438.942 C 520.277 426.836, 532.186 411.667, 539.128 399.781 C 548.539 383.667, 557.721 361.639, 561.478 346.158 C 563.244 338.886, 563.241 338.796, 561.195 336.751 C 559.229 334.784, 559.007 334.766, 556.565 336.366 C 555.154 337.290, 554 338.708, 554 339.517 C 554 342.854, 544.661 369.033, 539.953 378.894 C 529.304 401.198, 514.622 421.199, 496.390 438.236 L 491.322 442.973 482.585 429.736 C 472.741 414.823, 462.841 395.210, 454.703 374.500 C 451.678 366.800, 438.098 329, 424.527 290.500 C 396.709 211.583, 393.006 201.794, 385.371 187 C 372.256 161.585, 356.888 147.433, 335.755 141.312 C 325.975 138.479, 313.501 138.356, 301 140.968 M 188.226 176.750 C 184.419 179.320, 167.088 194.117, 160.734 200.223 C 158.335 202.528, 158.071 203.265, 159.016 205.029 C 159.629 206.175, 160.788 207.365, 161.590 207.673 C 163.478 208.397, 169.145 204.612, 176.845 197.483 L 182.983 191.800 177.016 204.150 C 161.309 236.656, 154.134 273.097, 156.792 306.855 C 158.586 329.621, 162.875 349.368, 170.093 368.084 C 172.926 375.431, 173.352 376, 176.023 376 C 180.990 376, 181.105 373.806, 176.800 361.158 C 161.530 316.298, 161.141 271.639, 175.654 229.617 C 179.005 219.914, 190.718 194.384, 191.472 195.139 C 191.672 195.339, 191.198 197.963, 190.418 200.969 C 187.751 211.250, 189.111 221.013, 193.323 221.824 C 196.775 222.488, 198 220.131, 198 212.824 C 198 208.359, 199.066 201.787, 200.996 194.354 C 204.256 181.799, 204.144 179.045, 200.253 175.984 C 196.789 173.259, 193.045 173.498, 188.226 176.750 M 357.468 204.177 C 354.815 210.954, 344.214 238.100, 333.911 264.500 L 315.179 312.500 337.521 312.769 C 349.809 312.916, 370.142 312.916, 382.706 312.769 L 405.549 312.500 390.288 267.500 C 376.690 227.401, 365.573 196.965, 363.141 193.177 C 362.568 192.285, 360.718 195.873, 357.468 204.177 M 198.589 413.077 C 194.498 417.938, 194.716 419.046, 204.186 441.500 C 211.177 458.076, 211.178 458.079, 213.258 459.391 C 215.094 460.549, 219 457.765, 219 455.298 C 219 454.533, 216.983 449.120, 214.517 443.269 L 210.034 432.631 217.225 439.950 C 246.788 470.046, 289.045 491.185, 332.500 497.618 C 343.991 499.319, 375.457 500.074, 380.131 498.761 C 383.030 497.946, 384.243 495.186, 382.820 492.642 C 382.030 491.231, 379.754 491, 366.670 491 C 309.454 491, 259.737 470.982, 222.500 432.950 C 215.281 425.577, 214.926 425.043, 218.863 427.474 C 232.207 435.714, 242 436.784, 242 430.003 C 242 427.398, 241.534 426.958, 237.750 425.990 C 230.101 424.033, 228.163 423.185, 222.295 419.229 C 206.959 408.893, 202.979 407.860, 198.589 413.077" stroke="none" fill="#444413" fill-rule="evenodd"/></svg>