<?xml version="1.0" encoding="UTF-8"?>
<svg version="1.1" xmlns="http://www.w3.org/2000/svg" width="1563" height="1563">
<path d="M0 0 C515.79 0 1031.58 0 1563 0 C1563 515.79 1563 1031.58 1563 1563 C1047.21 1563 531.42 1563 0 1563 C0 1047.21 0 531.42 0 0 Z " fill="#000000" transform="translate(0,0)"/>
<path d="M0 0 C41.15701473 36.75519497 56.88454936 95.40109833 74.40284729 145.69413757 C78.0526128 156.16803852 81.75051248 166.62448113 85.46203613 177.07662964 C91.43434885 193.89733269 97.37387589 210.72943248 103.29364014 227.56869507 C106.47254903 236.61061209 109.65422036 245.65155766 112.83605957 254.69244385 C113.60696106 256.88310575 114.37771499 259.07381958 115.14831543 261.2645874 C138.16329895 327.64817733 138.16329895 327.64817733 166.59545898 391.82763672 C167.15692627 392.95959473 167.71839355 394.09155273 168.296875 395.2578125 C168.79541992 396.2492627 169.29396484 397.24071289 169.80761719 398.26220703 C171.95001129 403.18129127 172.20185773 406.344234 170.78515625 411.51953125 C170.51123047 412.54111328 170.23730469 413.56269531 169.95507812 414.61523438 C169.51325195 416.19788086 169.51325195 416.19788086 169.0625 417.8125 C168.77181641 418.88693359 168.48113281 419.96136719 168.18164062 421.06835938 C167.46409511 423.71504365 166.7366048 426.35856884 166 429 C162.99700274 428.68500029 159.99875555 428.35176515 157 428 C156.22027832 427.91379395 155.44055664 427.82758789 154.63720703 427.73876953 C141.10298145 426.00463459 141.10298145 426.00463459 136.3515625 421.40380859 C133.23618187 417.21146553 131.21132359 412.50014036 129.18212891 407.71191406 C127.96557458 404.92102486 126.6238233 402.23006327 125.23046875 399.5234375 C107.53617445 364.8428557 96.02049585 327.20592639 83.56318665 290.42436218 C81.93695027 285.63155726 80.31112616 280.84068924 78.58938599 276.08123779 C78.35724679 275.43901968 78.12510759 274.79680157 77.88593388 274.1351223 C77.23548304 272.34290058 76.58023026 270.55242376 75.92469788 268.76205444 C75 266 75 266 75 264 C23.52 264 -27.96 264 -81 264 C-81.33 265.98 -81.66 267.96 -82 270 C-82.53198258 271.58039749 -83.11926751 273.14316459 -83.7578125 274.68359375 C-84.1280957 275.59020752 -84.49837891 276.49682129 -84.87988281 277.4309082 C-85.49621582 278.91917114 -85.49621582 278.91917114 -86.125 280.4375 C-87.0415353 282.68909917 -87.95542001 284.94177843 -88.8671875 287.1953125 C-89.1137207 287.80439957 -89.36025391 288.41348663 -89.61425781 289.04103088 C-93.59466405 298.91135192 -97.36511706 308.86518649 -101.1550293 318.80981445 C-104.37955647 327.25860297 -107.66098699 335.67628689 -111.07421875 344.05078125 C-112.04972663 346.46850158 -113.02334908 348.88697143 -113.99621582 351.30575562 C-114.61415384 352.8283025 -115.23997487 354.34767848 -115.87438965 355.86343384 C-120.02716482 365.79083985 -123.83365675 376.25829127 -119.8125 386.9375 C-116.46257011 392.59772636 -113.36009035 396.8421122 -107 399 C-103.57499725 399.38422829 -100.17297466 399.62568934 -96.73046875 399.7890625 C-94 400 -94 400 -93 401 C-93 402.65 -93 404.3 -93 406 C-130.62 406 -168.24 406 -207 406 C-207 404.02 -207 402.04 -207 400 C-206.15179687 399.98582031 -205.30359375 399.97164062 -204.4296875 399.95703125 C-188.16432674 399.29569241 -175.28866665 393.67672102 -163.8125 382 C-160.73992454 378.26446738 -158.45496979 374.33839118 -156.328125 370.015625 C-155.98572281 369.32422424 -155.64332062 368.63282349 -155.2905426 367.92047119 C-150.79279871 358.69717717 -146.8852434 349.21772867 -142.9375 339.75 C-142.09735773 337.74631866 -141.25677424 335.74282228 -140.41577148 333.73950195 C-138.32120566 328.7460059 -136.23322434 323.74979315 -134.14831543 318.7522583 C-133.09492527 316.2275149 -132.04042801 313.7032383 -130.98535156 311.17919922 C-127.64645623 303.19038901 -124.31723921 295.19758719 -120.99414062 287.20219421 C-116.73086073 276.94496452 -112.45929376 266.69118627 -108.1875 256.4375 C-107.76367035 255.42010742 -107.3398407 254.40271484 -106.90316772 253.35449219 C-102.39370986 242.53050841 -97.88082598 231.70797246 -93.35546875 220.890625 C-92.98192764 219.99771759 -92.60838654 219.10481018 -92.223526 218.18484497 C-90.37811617 213.77502861 -88.53064637 209.36608882 -86.67993164 204.95849609 C-83.18665867 196.63571968 -79.70831273 188.30752569 -76.27523804 179.95970154 C-74.62796636 175.95630256 -72.97346805 171.95590848 -71.31842041 167.95571899 C-70.52976562 166.04377664 -69.7446641 164.13036431 -68.96331787 162.21542358 C-67.88291908 159.5682156 -66.79045833 156.92629051 -65.6953125 154.28515625 C-65.37943176 153.50187958 -65.06355103 152.71860291 -64.73809814 151.91159058 C-62.59213137 146.78213169 -60.55201975 143.21596235 -55.34375 140.734375 C-54.4053125 140.40953125 -53.466875 140.0846875 -52.5 139.75 C-51.5615625 139.41484375 -50.623125 139.0796875 -49.65625 138.734375 C-47 138 -47 138 -43 138 C-42.12555119 140.01213999 -41.2762892 142.03523565 -40.4375 144.0625 C-39.96183594 145.18785156 -39.48617187 146.31320312 -38.99609375 147.47265625 C-37.08045835 154.25625925 -39.58136118 160.11444514 -42.10546875 166.38671875 C-42.42140991 167.18973419 -42.73735107 167.99274963 -43.06286621 168.82009888 C-44.09746844 171.44536902 -45.14245507 174.06637145 -46.1875 176.6875 C-46.91005408 178.51555589 -47.63180543 180.34392926 -48.3527832 182.17260742 C-49.83398658 185.92834647 -51.3184347 189.68278005 -52.8046875 193.43652344 C-54.89048824 198.71273674 -56.95069504 203.99858087 -59 209.2890625 C-59.31431473 210.1002504 -59.62862946 210.91143829 -59.95246887 211.74720764 C-61.15312524 214.84720077 -62.35306644 217.94746916 -63.55184937 221.04818726 C-64.37040632 223.16418058 -65.19089315 225.27941712 -66.01171875 227.39453125 C-66.47022217 228.57893799 -66.92872559 229.76334473 -67.40112305 230.98364258 C-69.53676412 236.34834426 -71.77916713 241.6700011 -74 247 C-26.81 247 20.38 247 69 247 C64.38 233.47 59.76 219.94 55 206 C52.22463211 197.83013283 49.44980134 189.66015187 46.68118286 181.48800659 C45.50208849 178.00926487 44.32141741 174.53106133 43.14038086 171.05297852 C39.70507877 160.93499933 36.27115461 150.81667873 32.86767578 140.6879425 C23.34443937 112.35288876 13.65140229 84.12609492 1 57 C-2.76903917 65.00499481 -6.06201565 73.13024055 -9.1953125 81.40234375 C-9.67374083 82.65517864 -10.1526631 83.907825 -10.63204956 85.16029358 C-12.64462518 90.4207083 -14.6492362 95.68413699 -16.64892578 100.94946289 C-17.88123802 104.19320158 -19.11975146 107.43451661 -20.36205673 110.67444038 C-21.0575429 112.49393657 -21.74589631 114.31615405 -22.43411255 116.13841248 C-22.85820404 117.2437886 -23.28229553 118.34916473 -23.71923828 119.48803711 C-24.08832306 120.45857529 -24.45740784 121.42911346 -24.837677 122.42906189 C-25.97061812 124.93501032 -27.26163937 126.87995507 -29 129 C-29.67305018 127.39850114 -30.33822227 125.79368971 -31 124.1875 C-31.556875 122.84751953 -31.556875 122.84751953 -32.125 121.48046875 C-33 119 -33 119 -33 116 C-34.13179687 116.433125 -35.26359375 116.86625 -36.4296875 117.3125 C-37.9113927 117.87517286 -39.39316714 118.43766343 -40.875 119 C-41.62136719 119.28617188 -42.36773438 119.57234375 -43.13671875 119.8671875 C-48.7734375 122 -48.7734375 122 -51 122 C-50.30242806 117.17672002 -48.45927558 112.99446113 -46.5625 108.546875 C-46.21000687 107.70990082 -45.85751373 106.87292664 -45.49433899 106.0105896 C-44.73155647 104.20058769 -43.966736 102.39144356 -43.20010376 100.58306885 C-41.99015505 97.72675916 -40.78739308 94.86752329 -39.58666992 92.00732422 C-35.81706091 83.03201133 -32.02994884 74.06434891 -28.21829224 65.10681152 C-26.62218928 61.34902957 -25.03646813 57.58692338 -23.45288086 53.82385254 C-22.69477253 52.02969529 -21.93177377 50.23759635 -21.16381836 48.44763184 C-20.09332999 45.95173319 -19.03912221 43.44953346 -17.98828125 40.9453125 C-17.66837723 40.21073822 -17.34847321 39.47616394 -17.01887512 38.71932983 C-15.38524042 34.774967 -14.48082279 32.08588711 -16 28 C-17.81135656 25.52514286 -17.81135656 25.52514286 -20.125 23.1875 C-22.98591141 20.15115535 -25.74468895 17.11181481 -28.375 13.875 C-40.07075569 0.577086 -58.80523934 -7.99813666 -76 -11 C-96.08341374 -12.15896241 -113.87972875 -9.88545849 -133 -4 C-133.99 -6.97 -133.99 -6.97 -135 -10 C-89.63617941 -28.60667346 -40.03488491 -33.47946516 0 0 Z " fill="#444310" transform="translate(782,544)"/>
<path d="M0 0 C3.84489204 1.28163068 4.30846141 2.66061684 6.4375 6.0625 C21.3305771 29.0294797 39.5052476 52.39851929 63 67 C63.57121582 67.35642578 64.14243164 67.71285156 64.73095703 68.08007812 C75.46140888 74.6140118 87.0204393 78.40613179 99 82 C100.12921875 82.36351562 101.2584375 82.72703125 102.421875 83.1015625 C113.30250459 86.18152908 127.99114704 86.97883141 139 84 C140.41534778 83.93543121 141.83337689 83.91388961 143.25 83.9375 C145.10625 83.9684375 145.10625 83.9684375 147 84 C147 85.65 147 87.3 147 89 C141.48386209 90.97004925 135.92419097 92.61255033 130.25 94.0625 C128.99703125 94.38347656 127.7440625 94.70445313 126.453125 95.03515625 C91.94615072 102.91262867 60.40409953 96.9268537 30.36328125 79.1171875 C19.75650206 72.44021384 10.4530807 64.96591966 1.3984375 56.31298828 C-0.47040364 54.5583396 -2.41652371 52.90340594 -4.375 51.25 C-8.32554239 47.81581481 -11.62790783 43.99276188 -15 40 C-15.98665131 38.87357024 -16.97508221 37.74869788 -17.96484375 36.625 C-19.03923362 35.3959829 -20.1134513 34.16681526 -21.1875 32.9375 C-21.69893555 32.35991943 -22.21037109 31.78233887 -22.73730469 31.18725586 C-26.06630704 27.34714604 -28.60572167 23.48570045 -31 19 C-22.48481098 20.39998272 -14.19292724 22.26902425 -6 25 C-5.7525 23.845 -5.505 22.69 -5.25 21.5 C-3.6543635 14.2965106 -1.80786598 7.1524795 0 0 Z " fill="#444310" transform="translate(969,975)"/>
</svg>
